<svg xmlns="http://www.w3.org/2000/svg" xmlns:xlink="http://www.w3.org/1999/xlink" version="1.1" x="0px" y="0px" viewBox="0 0 1600 2000" style="enable-background:new 0 0 1600 1600;" xml:space="preserve"><path d="M1305.9,1260l-98.3-216.7c-16.2-35.7-45.4-62.9-82.3-76.8s-76.8-12.6-112.5,3.6l-65.2,29.6  c-43.7-68.9-83.4-142.4-117.9-218.5c-32.8-72.4-60.8-146.8-83.3-221.2l66.6-30.3c73.9-33.5,106.7-120.8,73.2-194.7l-98.3-216.7  C754.4,44.4,667.1,11.6,593.2,45.1L367.4,147.5c-52.3,23.8-86.2,76.2-86.3,133.6c-0.2,137,20.6,280,62,425.1  c24.3,85.3,55.7,170.5,93.3,253.4c39.1,86.2,84.5,169,135,246.1c83.6,127.6,179.3,237.7,284.3,327.2c21.3,18.1,47.2,29.8,74.9,33.7  c6.9,0.9,13.7,1.4,20.6,1.4c20.8,0,41.5-4.4,60.7-13.1l220.8-100.1c35.7-16.2,62.9-45.4,76.8-82.3S1322.1,1295.7,1305.9,1260z   M1264.6,1355.6c-9.4,24.8-27.7,44.5-51.7,55.4l-220.8,100.1c-34.9,15.8-76.2,10-105.3-14.8c-101.5-86.5-194.1-193.1-275.2-316.9  c-49.2-75-93.4-155.6-131.5-239.6C443.4,859,412.9,776,389.2,693c-40.1-140.7-60.4-279.3-60.1-411.8c0.1-38.7,22.9-74,58.2-90  L613,88.7c13.2-6,27.1-8.8,40.8-8.8c37.7,0,73.8,21.7,90.6,58.3l98.3,216.7c22.6,49.8,0.5,108.6-49.3,131.2l-69.5,31.5  c-20.2,9.2-30.7,32.1-24.3,53.3c23.2,77.4,52.3,154.8,86.5,230.1c35.9,79.1,77.1,155.5,122.7,227c11.8,18.6,35.8,25.7,55.9,16.6  l68-30.8c24-10.9,50.9-11.7,75.8-2.4c24.8,9.4,44.5,27.7,55.4,51.7l98.3,216.7C1273.1,1303.8,1273.9,1330.7,1264.6,1355.6z"/><text x="0" y="1615" fill="#000000" font-size="5px" font-weight="bold" font-family="'Helvetica Neue', Helvetica, Arial-Unicode, Arial, Sans-serif">Created by SAM Designs</text><text x="0" y="1620" fill="#000000" font-size="5px" font-weight="bold" font-family="'Helvetica Neue', Helvetica, Arial-Unicode, Arial, Sans-serif">from the Noun Project</text></svg>