<svg xmlns="http://www.w3.org/2000/svg" viewBox="0 0 13.1 195.98"><defs><style>.cls-1{fill:none;stroke:#e4c590;stroke-linecap:round;stroke-linejoin:round;stroke-width:0.5px;}.cls-2{fill:#e4c590;}</style></defs><g id="Layer_2" data-name="Layer 2"><g id="OBJECTS"><line class="cls-1" x1="5.25" y1="0.25" x2="5.25" y2="86.09"/><line class="cls-1" x1="2.63" y1="4.48" x2="2.63" y2="81.09"/><line class="cls-1" x1="0.25" y1="8.69" x2="0.25" y2="77.75"/><line class="cls-1" x1="0.25" y1="86.09" x2="5.25" y2="92.46"/><line class="cls-1" x1="0.25" y1="90.67" x2="3.82" y2="94.69"/><line class="cls-1" x1="0.25" y1="94.88" x2="2.03" y2="97"/><line class="cls-1" x1="5.25" y1="195.73" x2="5.25" y2="109.89"/><line class="cls-1" x1="2.63" y1="191.49" x2="2.63" y2="114.89"/><line class="cls-1" x1="0.25" y1="187.29" x2="0.25" y2="118.22"/><line class="cls-1" x1="0.25" y1="109.89" x2="5.25" y2="103.52"/><line class="cls-1" x1="0.25" y1="105.31" x2="3.82" y2="101.29"/><line class="cls-1" x1="0.25" y1="101.1" x2="2.03" y2="98.98"/><path  class="cls-2" d="M8.46,101.46c-2.57,0-4.64-1.55-4.64-3.47s2.07-3.47,4.64-3.47S13.1,96.07,13.1,98,11,101.46,8.46,101.46Z"/></g></g></svg>