<svg xmlns="http://www.w3.org/2000/svg"  viewBox="0 0 381.102 16.99">
  <g id="Group_2" data-name="Group 2" transform="translate(-769.869 -496.393)">
    <line id="Line_1" data-name="Line 1" x2="359.08" transform="translate(780.879 504.888)" fill="none" stroke="#e4c590" stroke-linecap="round" stroke-linejoin="round" stroke-width="1.463"/>
    <path id="Path_1" data-name="Path 1" d="M0,7.887c8.52-2.321,11.306-5.9,16.249-5.9,5.427,0,6.362,5.9,6.362,5.9Z" transform="translate(770 497)" fill="#e4c590" stroke="#e4c590" stroke-width="1"/>
    <path id="Path_2" data-name="Path 2" d="M0,7.887c8.52,2.321,11.306,5.9,16.249,5.9,5.427,0,6.362-5.9,6.362-5.9Z" transform="translate(770 497)" fill="#e4c590" stroke="#e4c590" stroke-width="1"/>
    <path id="Path_3" data-name="Path 3" d="M380.839,7.887c-8.52-2.321-11.3-5.9-16.248-5.9-5.428,0-6.363,5.9-6.363,5.9Z" transform="translate(770 497)" fill="#e4c590" stroke="#e4c590" stroke-width="1"/>
    <path id="Path_4" data-name="Path 4" d="M380.839,7.887c-8.52,2.321-11.3,5.9-16.248,5.9-5.428,0-6.363-5.9-6.363-5.9Z" transform="translate(770 497)" fill="#e4c590" stroke="#e4c590" stroke-width="1"/>
    <path id="Path_5" data-name="Path 5" d="M181.764,7.887l-7.106-4.921-7.107,4.921,7.107,4.921Z" transform="translate(770 497)" fill="#e4c590" stroke="#e4c590" stroke-width="1"/>
    <path id="Path_6" data-name="Path 6" d="M213.287,7.887l-7.106-4.921-7.106,4.921,7.106,4.921Z" transform="translate(770 497)" fill="#e4c590" stroke="#e4c590" stroke-width="1"/>
    <path id="Path_7" data-name="Path 7" d="M201.809,7.887,190.42,0,179.03,7.887l11.39,7.887Z" transform="translate(770 497)" fill="#e4c590" stroke="#e4c590" stroke-width="1"/>
  </g>
</svg>
