<svg xmlns="http://www.w3.org/2000/svg"  viewBox="0 0 376.39 25.439">
  <g id="Group_1" data-name="Group 1" transform="translate(-772.223 -558.656)">
    <path id="Path_8" data-name="Path 8" d="M205.872,74.376c6.259-1.705,8.305-4.337,11.936-4.337,3.986,0,4.673,4.337,4.673,4.337Z" transform="translate(770 497)" fill="#e4c590" stroke="#e4c590" stroke-width="1"/>
    <path id="Path_9" data-name="Path 9" d="M205.872,74.376c6.259,1.705,8.305,4.337,11.936,4.337,3.986,0,4.673-4.337,4.673-4.337Z" transform="translate(770 497)" fill="#e4c590" stroke="#e4c590" stroke-width="1"/>
    <path id="Path_10" data-name="Path 10" d="M174.967,74.376c-6.259-1.705-8.3-4.337-11.936-4.337-3.986,0-4.673,4.337-4.673,4.337Z" transform="translate(770 497)" fill="#e4c590" stroke="#e4c590" stroke-width="1"/>
    <path id="Path_11" data-name="Path 11" d="M174.967,74.376c-6.259,1.705-8.3,4.337-11.936,4.337-3.986,0-4.673-4.337-4.673-4.337Z" transform="translate(770 497)" fill="#e4c590" stroke="#e4c590" stroke-width="1"/>
    <path id="Path_12" data-name="Path 12" d="M361.419,74.376c6.259-1.705,8.3-4.337,11.936-4.337,3.986,0,4.673,4.337,4.673,4.337Z" transform="translate(770 497)" fill="#e4c590" stroke="#e4c590" stroke-width="1"/>
    <path id="Path_13" data-name="Path 13" d="M361.419,74.376c6.259,1.705,8.3,4.337,11.936,4.337,3.986,0,4.673-4.337,4.673-4.337Z" transform="translate(770 497)" fill="#e4c590" stroke="#e4c590" stroke-width="1"/>
    <path id="Path_14" data-name="Path 14" d="M178.2,74.376h0a12.219,12.219,0,0,0,12.219-12.22h0a12.22,12.22,0,0,0,12.219,12.22A12.219,12.219,0,0,0,190.42,86.6h0A12.219,12.219,0,0,0,178.2,74.376" transform="translate(770 497)" fill="#e4c590" stroke="#e4c590" stroke-width="1"/>
    <path id="Path_15" data-name="Path 15" d="M19.42,74.376c-6.259-1.705-8.305-4.337-11.936-4.337-3.987,0-4.675,4.337-4.675,4.337Z" transform="translate(770 497)" fill="#e4c590" stroke="#e4c590" stroke-width="1"/>
    <path id="Path_16" data-name="Path 16" d="M19.42,74.376c-6.259,1.705-8.305,4.337-11.936,4.337-3.987,0-4.675-4.337-4.675-4.337Z" transform="translate(770 497)" fill="#e4c590" stroke="#e4c590" stroke-width="1"/>
    <line id="Line_2" data-name="Line 2" x2="147.716" transform="translate(780.642 571.376)" fill="none" stroke="#e4c590" stroke-linecap="round" stroke-linejoin="round" stroke-width="1.538"/>
    <line id="Line_3" data-name="Line 3" x2="144.79" transform="translate(992.481 571.376)" fill="none" stroke="#e4c590" stroke-linecap="round" stroke-linejoin="round" stroke-width="1.538"/>
  </g>
</svg>
