<svg xmlns="http://www.w3.org/2000/svg" width="633.125" height="12.937" viewBox="0 0 633.125 12.937">
  <g id="Group_2" data-name="Group 2" transform="translate(-585.271 -727.569)">
    <line id="Line_3" data-name="Line 3" x2="535.43" transform="translate(634.015 740.038)" fill="none" stroke="#e4c590" stroke-miterlimit="10" stroke-width="0.937"/>
    <line id="Line_4" data-name="Line 4" x2="627.211" transform="translate(588.125 734.038)" fill="none" stroke="#e4c590" stroke-miterlimit="10" stroke-width="3"/>
    <line id="Line_5" data-name="Line 5" x2="535.43" transform="translate(634.015 728.038)" fill="none" stroke="#e4c590" stroke-miterlimit="10" stroke-width="0.937"/>
    <path id="Path_80" data-name="Path 80" d="M54.359,560.189l-12.443,4.834-14.857-5.166,14.736-4.8Z" transform="translate(576 174)" fill="#e4c590" stroke="#e4c590" stroke-width="1"/>
    <path id="Path_81" data-name="Path 81" d="M23.277,560.039a3.453,3.453,0,1,1-3.454-3.453,3.454,3.454,0,0,1,3.454,3.453" transform="translate(576 174)" fill="#e4c590" stroke="#e4c590" stroke-width="1"/>
    <path id="Path_82" data-name="Path 82" d="M14.087,560.039a2.158,2.158,0,1,1-2.158-2.158,2.158,2.158,0,0,1,2.158,2.158" transform="translate(576 174)" fill="#e4c590" stroke="#e4c590" stroke-width="1"/>
    <path id="Path_83" data-name="Path 83" d="M61.266,560.039a2.158,2.158,0,1,1-2.158-2.158,2.158,2.158,0,0,1,2.158,2.158" transform="translate(576 174)" fill="#e4c590" stroke="#e4c590" stroke-width="1"/>
    <path id="Path_84" data-name="Path 84" d="M597.309,560.189l12.443,4.834,14.858-5.166-14.736-4.8Z" transform="translate(576 174)" fill="#e4c590" stroke="#e4c590" stroke-width="1"/>
    <path id="Path_85" data-name="Path 85" d="M628.391,560.039a3.454,3.454,0,1,0,3.455-3.453,3.455,3.455,0,0,0-3.455,3.453" transform="translate(576 174)" fill="#e4c590" stroke="#e4c590" stroke-width="1"/>
    <path id="Path_86" data-name="Path 86" d="M637.58,560.039a2.158,2.158,0,1,0,2.158-2.158,2.159,2.159,0,0,0-2.158,2.158" transform="translate(576 174)" fill="#e4c590" stroke="#e4c590" stroke-width="1"/>
    <path id="Path_87" data-name="Path 87" d="M590.4,560.039a2.158,2.158,0,1,0,2.158-2.158,2.158,2.158,0,0,0-2.158,2.158" transform="translate(576 174)" fill="#e4c590" stroke="#e4c590" stroke-width="1"/>
  </g>
</svg>
