<svg xmlns="http://www.w3.org/2000/svg" width="654.8" height="20.741" viewBox="0 0 654.8 20.741">
  <g id="Group_3" data-name="Group 3" transform="translate(-574.434 -173.501)">
    <path id="Path_248" data-name="Path 248" d="M51.234,2.2a2.2,2.2,0,1,1-2.2-2.2,2.2,2.2,0,0,1,2.2,2.2" transform="translate(576 174)" fill="#e4c590" stroke="#e4c590" stroke-width="1"/>
    <path id="Path_249" data-name="Path 249" d="M51.234,17.544a2.2,2.2,0,1,1-2.2-2.2,2.2,2.2,0,0,1,2.2,2.2" transform="translate(576 174)" fill="#e4c590" stroke="#e4c590" stroke-width="1"/>
    <path id="Path_250" data-name="Path 250" d="M68.191,9.076a3.023,3.023,0,1,1-3.022-3.022,3.023,3.023,0,0,1,3.022,3.022" transform="translate(576 174)" fill="#e4c590" stroke="#e4c590" stroke-width="1"/>
    <path id="Path_251" data-name="Path 251" d="M77.524,9.076A3.773,3.773,0,1,1,73.752,5.3a3.772,3.772,0,0,1,3.772,3.772" transform="translate(576 174)" fill="#e4c590" stroke="#e4c590" stroke-width="1"/>
    <path id="Path_252" data-name="Path 252" d="M30.692,9.758,16.7,15.191,0,9.386l16.565-5.4Z" transform="translate(576 174)" fill="#e4c590" stroke="#e4c590" stroke-width="1"/>
    <path id="Path_253" data-name="Path 253" d="M60.92,9.7l-9.4,3.65-11.224-3.9,11.132-3.63Z" transform="translate(576 174)" fill="#e4c590" stroke="#e4c590" stroke-width="1"/>
    <path id="Path_254" data-name="Path 254" d="M47.979,14.2l-9.4,3.651-11.224-3.9,11.132-3.629Z" transform="translate(576 174)" fill="#e4c590" stroke="#e4c590" stroke-width="1"/>
    <path id="Path_255" data-name="Path 255" d="M47.979,5.211l-9.4,3.651L27.354,4.96,38.486,1.33Z" transform="translate(576 174)" fill="#e4c590" stroke="#e4c590" stroke-width="1"/>
    <path id="Path_256" data-name="Path 256" d="M600.434,2.2a2.2,2.2,0,1,0,2.2-2.2,2.2,2.2,0,0,0-2.2,2.2" transform="translate(576 174)" fill="#e4c590" stroke="#e4c590" stroke-width="1"/>
    <path id="Path_257" data-name="Path 257" d="M600.434,17.544a2.2,2.2,0,1,0,2.2-2.2,2.2,2.2,0,0,0-2.2,2.2" transform="translate(576 174)" fill="#e4c590" stroke="#e4c590" stroke-width="1"/>
    <path id="Path_258" data-name="Path 258" d="M583.477,9.076A3.022,3.022,0,1,0,586.5,6.054a3.023,3.023,0,0,0-3.022,3.022" transform="translate(576 174)" fill="#e4c590" stroke="#e4c590" stroke-width="1"/>
    <path id="Path_259" data-name="Path 259" d="M574.144,9.076A3.773,3.773,0,1,0,577.916,5.3a3.772,3.772,0,0,0-3.772,3.772" transform="translate(576 174)" fill="#e4c590" stroke="#e4c590" stroke-width="1"/>
    <path id="Path_260" data-name="Path 260" d="M620.975,9.758l13.991,5.433,16.7-5.8L635.1,3.984Z" transform="translate(576 174)" fill="#e4c590" stroke="#e4c590" stroke-width="1"/>
    <path id="Path_261" data-name="Path 261" d="M590.748,9.7l9.4,3.65,11.224-3.9-11.132-3.63Z" transform="translate(576 174)" fill="#e4c590" stroke="#e4c590" stroke-width="1"/>
    <path id="Path_262" data-name="Path 262" d="M603.688,14.2l9.4,3.651,11.224-3.9-11.132-3.629Z" transform="translate(576 174)" fill="#e4c590" stroke="#e4c590" stroke-width="1"/>
    <path id="Path_263" data-name="Path 263" d="M603.688,5.211l9.4,3.651,11.224-3.9L613.181,1.33Z" transform="translate(576 174)" fill="#e4c590" stroke="#e4c590" stroke-width="1"/>
    <line id="Line_7" data-name="Line 7" x2="561.195" transform="translate(621.458 183.513)" fill="none" stroke="#e4c590" stroke-miterlimit="10" stroke-width="2.5"/>
    <path id="Path_264" data-name="Path 264" d="M329.582,9.242a4.5,4.5,0,1,1-4.5-4.5,4.5,4.5,0,0,1,4.5,4.5" transform="translate(576 174)" fill="#e4c590" stroke="#e4c590" stroke-width="1"/>
  </g>
</svg>
