<svg xmlns="http://www.w3.org/2000/svg"  viewBox="0 0 76 76">
  <g id="Group_3" data-name="Group 3" transform="translate(-2.5 -2.5)">
    <path fill="#e4c590" id="Path_4" data-name="Path 4" d="M74.7,17.7h-19V10.1a7.608,7.608,0,0,0-7.6-7.6H32.9a7.608,7.608,0,0,0-7.6,7.6v7.6H6.3a3.8,3.8,0,0,0-3.8,3.8V31A13.315,13.315,0,0,0,15.8,44.3H65.2A13.315,13.315,0,0,0,78.5,31V21.5A3.8,3.8,0,0,0,74.7,17.7Zm-26.6,0H32.9V10.1H48.1Z"/>
    <path fill="#e4c590" id="Path_5" data-name="Path 5" d="M65.2,19.277H44.3v7.6a3.8,3.8,0,1,1-7.6,0v-7.6H15.8A17.008,17.008,0,0,1,2.5,12.794V45.877a3.8,3.8,0,0,0,3.8,3.8H74.7a3.8,3.8,0,0,0,3.8-3.8V12.794A17.008,17.008,0,0,1,65.2,19.277Z" transform="translate(0 28.823)"/>
  </g>
</svg>
