<svg xmlns="http://www.w3.org/2000/svg"  viewBox="0 0 159.323 148.359">
  <g id="home-icon-silhouette-svgrepo-com" transform="translate(0 -17.047)">
    <g id="Group_2" data-name="Group 2" transform="translate(0.001 17.047)">
      <g id="Group_1" data-name="Group 1" transform="translate(0 0)">
        <path fill="#e4c590" id="Path_1" data-name="Path 1" d="M156.65,84.091,132.5,59.945V32.052a9.132,9.132,0,0,0-18.264,0v9.629L96.26,23.7c-8.889-8.884-24.344-8.868-33.212.016L2.674,84.091a9.134,9.134,0,0,0,12.92,12.915L75.962,36.631a5.391,5.391,0,0,1,7.389-.006L143.73,97.006A9.134,9.134,0,1,0,156.65,84.091Z" transform="translate(-0.001 -17.047)"/>
        <path fill="#e4c590" id="Path_2" data-name="Path 2" d="M129.389,129.063a4.482,4.482,0,0,0-6.343,0l-53.106,53.09a4.5,4.5,0,0,0-1.314,3.177v38.722A16.454,16.454,0,0,0,85.08,240.5h26.293V199.785h29.684V240.5H167.35A16.454,16.454,0,0,0,183.8,224.051V185.329a4.477,4.477,0,0,0-1.314-3.177Z" transform="translate(-46.556 -92.146)"/>
      </g>
    </g>
  </g>
</svg>
