<svg xmlns="http://www.w3.org/2000/svg"  viewBox="0 0 89.986 87.787">
  <path id="Path_8" data-name="Path 8" fill="#e4c590" d="M89.641,10.738l1.754,2.574,2.258-1.535h0A3.108,3.108,0,1,0,90.1,6.672l-2.207,1.5Zm-33.414,19,1.246,1.828L87.657,11.011,86.415,9.183,56.227,29.742Zm10.59,2.48,4.242-2.891v0A1.844,1.844,0,0,0,72.8,30.547l4.82.016a.048.048,0,0,1,.02.039l-.012,9.25-4.828.02a1.838,1.838,0,0,0-1.762,1.277,18.884,18.884,0,0,1-1.117,2.7,1.847,1.847,0,0,0,.344,2.145l3.391,3.391-.008.07-6.516,6.516a.05.05,0,0,1-.039.016l-3.422-3.4a1.852,1.852,0,0,0-2.145-.344,18.982,18.982,0,0,1-2.7,1.121,1.838,1.838,0,0,0-1.277,1.758V59.9l-.027.051-9.281-.008-.016-4.82a1.842,1.842,0,0,0-1.281-1.762,18.885,18.885,0,0,1-2.7-1.117,1.848,1.848,0,0,0-2.145.344L38.72,55.968h-.078l-6.516-6.516v0a.045.045,0,0,1-.016-.039l3.4-3.422,0,0a1.847,1.847,0,0,0,.34-2.145,18.885,18.885,0,0,1-1.117-2.7,1.845,1.845,0,0,0-1.758-1.281l-4.824-.016-.016-9.25a.048.048,0,0,1,.02-.039l4.82-.016a1.845,1.845,0,0,0,1.758-1.281,19.347,19.347,0,0,1,1.117-2.7,1.847,1.847,0,0,0-.34-2.145l-3.391-3.391.008-.07,6.516-6.516a.045.045,0,0,1,.039-.016l3.422,3.4h0a1.848,1.848,0,0,0,2.145.344,18.747,18.747,0,0,1,2.7-1.117A1.837,1.837,0,0,0,48.223,15.3V10.515l.027-.051,9.242-.008v0a.069.069,0,0,1,.039.016l.016,4.82a1.843,1.843,0,0,0,1.277,1.762,18.518,18.518,0,0,1,2.7,1.117,1.851,1.851,0,0,0,2.145-.34l3.422-3.4,3.43,3.4-8.934,6.086v0a14.249,14.249,0,1,0,5.231,8.3ZM60.012,25l-5.535,3.77a.891.891,0,0,0-.234.234L46.231,39.281a.9.9,0,0,0,.957,1.41l12.527-3.7.273-.121L65.2,33.324A12.451,12.451,0,1,1,60.012,25Zm10.973,2.219L59.727,34.883l-1.246-1.828L88.669,12.493l1.246,1.828L71.032,27.184l-.047.031ZM58.649,72.3a7.144,7.144,0,0,1,.777-.066,3.443,3.443,0,0,0,1.656-1,3.9,3.9,0,0,0,.41-5.254A3.542,3.542,0,0,0,59.1,64.754c-10.52-.93-13.629-2.18-16.645-3.391-6.078-2.441-9.332-2.609-15.84-1.566a.912.912,0,0,1-.23.008c-2.918-.281-11.551,6.266-17.211,10.555C7.445,71.672,5.985,72.781,5,73.449L18.3,93.816c.262.4-.113-.719.3-.984,1.152-.754,2.914-2.043,4.867-3.473,3.813-2.789,8.34-6.105,10.824-7.219v0a.875.875,0,0,1,.328-.09c6.324-.5,12.074-.516,17.691-.527,3.367-.008,6.688-.016,10.09-.133h0a8.664,8.664,0,0,0,3.074-1.246c.434-.242.863-.488,1.242-.672L88.66,68.745a3.175,3.175,0,0,0,.84-4.707,4,4,0,0,0-5.023-.9L62.523,73.859A7.217,7.217,0,0,1,60.6,74a3.23,3.23,0,0,1-.613-.059,4.692,4.692,0,0,1-1.527.145c-1.719-.152-15.184-1.1-15.547-1.187-2.1-.488-4.871.875-7.133,1.238v0a.9.9,0,0,1-.281-1.77,19.206,19.206,0,0,0,2.387-.6,10.71,10.71,0,0,1,5.391-.625Zm2.828-8.629h0a5.264,5.264,0,0,1,2.637,4.906,6.27,6.27,0,0,1-.848,2.7l14.3-9.02h0a3.449,3.449,0,0,0-1.277-6.215,4.01,4.01,0,0,0-2.758.523l-12.051,7.1ZM56.5,33.32l1.563,2.293-8.7,2.57,5.578-7.16Z" transform="translate(-5 -6.115)" fill-rule="evenodd"/>
</svg>
