<svg xmlns="http://www.w3.org/2000/svg"  viewBox="0 0 128.844 130.062">
  <path id="Path_3" data-name="Path 3" fill="#e4c590" d="M108.2,45.968a3.167,3.167,0,0,1,.015,6.334v-.008l-18.269.092h-.015a3.163,3.163,0,0,1-.015-6.326l18.269-.092ZM125.128,58.9a3.155,3.155,0,0,1,3.159,3.144v.008a3.149,3.149,0,0,1-3.144,3.175l-.015.008a3.173,3.173,0,0,1-3.167-3.151v-.008a3.165,3.165,0,0,1,3.151-3.175Zm-11.134.054a3.167,3.167,0,0,1,.015,6.334L90.016,65.4,90,65.408a3.167,3.167,0,0,1-.015-6.334l23.994-.123Zm-7.1-41.924h-.2a39.3,39.3,0,0,0-9.232,77.445l5.4,14.439a3.14,3.14,0,0,0,2.458,2.011,2.818,2.818,0,0,0,.5.046h.015a3.3,3.3,0,0,0,.948-.154,3.192,3.192,0,0,0,1.5-1.032l13.9-17.267A39.3,39.3,0,0,0,106.9,17.027ZM32.836,46.83h-.054v.008a9.363,9.363,0,0,0-6.634,2.735c-5.008,5.016-5.024,5.07-5.024,5.07A9.5,9.5,0,0,0,18.543,59.5l-.008.039a68.236,68.236,0,0,0-.085,25.011l.008.039a29.847,29.847,0,0,0,8.3,15.873l37.862,37.486a29.868,29.868,0,0,0,15.965,8.137l.039.008a68.088,68.088,0,0,0,11.588.994c.123,0,.239,0,.354-.008a67.78,67.78,0,0,0,13.06-1.325l.039-.008a9.484,9.484,0,0,0,4.839-2.627l5.016-5.078a9.5,9.5,0,0,0-.139-13.361,8.813,8.813,0,0,0-1.287-1.063l-12.59-9.069a9.484,9.484,0,0,0-5.54-1.78h-.046a9.432,9.432,0,0,0-6.7,2.812l-3.375,3.4a3.14,3.14,0,0,1-2.158.855l-.015.008a3.183,3.183,0,0,1-2.234-.925c-.015-.008-35.8-35.444-35.821-35.452a3.153,3.153,0,0,1-.1-4.407c3.29-3.39,3.359-3.413,3.359-3.413a9.485,9.485,0,0,0,.909-12.3l-9.192-12.5a9.884,9.884,0,0,0-1.079-1.279v.008a9.447,9.447,0,0,0-6.673-2.751Z" transform="translate(-17.337 -17.027)"/>
</svg>
