<svg xmlns="http://www.w3.org/2000/svg" width="71.291" height="5.689" viewBox="0 0 71.291 5.689">
  <g id="Group_3" data-name="Group 3" transform="translate(71.291 0) rotate(90)">
    <path id="Path_1" data-name="Path 1" d="M7.485,0A3.51,3.51,0,0,0,4.724,1.407c-.393.552-.386,1.513-.756,1.982l-1.785.62L1.426,2.965A3.782,3.782,0,0,1,1.562.832C1.744.219.806-.2.511.393c-1.051,2.1-.575,5.235,2.315,5.3a2.541,2.541,0,0,0,2.481-1.74c.408-.945.537-2.065,1.717-2.4,1.649-.469,2.33,1.271,2.133,2.579-.106.719.9,1.324,1.293.537A3.305,3.305,0,0,0,7.485,0Z" transform="translate(5.689) rotate(90)" fill="#e4c590"/>
    <path id="Path_2" data-name="Path 2" d="M7.485,0A3.51,3.51,0,0,0,4.724,1.407c-.393.552-.386,1.513-.756,1.982l-1.785.62L1.426,2.965A3.782,3.782,0,0,1,1.562.832C1.744.219.806-.2.511.393c-1.051,2.1-.575,5.235,2.315,5.3a2.541,2.541,0,0,0,2.481-1.74c.408-.945.537-2.065,1.717-2.4,1.649-.469,2.33,1.271,2.133,2.579-.106.719.9,1.324,1.293.537A3.305,3.305,0,0,0,7.485,0Z" transform="translate(5.689 12.102) rotate(90)" fill="#e4c590"/>
    <path id="Path_3" data-name="Path 3" d="M7.447,0A3.51,3.51,0,0,0,4.686,1.407C4.293,1.959,4.3,2.92,3.93,3.389l-1.785.62L1.426,2.965A3.782,3.782,0,0,1,1.562.832C1.744.219.806-.2.511.393c-1.051,2.1-.575,5.235,2.315,5.3a2.541,2.541,0,0,0,2.481-1.74c.408-.945.537-2.065,1.717-2.4,1.649-.469,2.33,1.271,2.133,2.579-.106.719.9,1.324,1.293.537A3.3,3.3,0,0,0,7.447,0Z" transform="translate(5.689 24.242) rotate(90)" fill="#e4c590"/>
    <path id="Path_4" data-name="Path 4" d="M7.447,0A3.51,3.51,0,0,0,4.686,1.407C4.293,1.959,4.3,2.92,3.93,3.389l-1.785.62L1.426,2.965A3.782,3.782,0,0,1,1.562.832C1.744.219.806-.2.511.393c-1.051,2.1-.575,5.235,2.315,5.3a2.541,2.541,0,0,0,2.481-1.74c.408-.945.537-2.065,1.717-2.4,1.649-.469,2.33,1.271,2.133,2.579-.106.719.9,1.324,1.293.537A3.3,3.3,0,0,0,7.447,0Z" transform="translate(5.689 36.345) rotate(90)" fill="#e4c590"/>
    <path id="Path_5" data-name="Path 5" d="M7.485,0A3.51,3.51,0,0,0,4.724,1.407c-.393.552-.386,1.513-.756,1.982l-1.785.62L1.426,2.965A3.782,3.782,0,0,1,1.562.832C1.744.219.806-.2.511.393c-1.051,2.1-.575,5.235,2.315,5.3a2.541,2.541,0,0,0,2.481-1.74c.408-.945.537-2.065,1.717-2.4,1.649-.469,2.33,1.271,2.133,2.579-.106.719.9,1.324,1.293.537A3.305,3.305,0,0,0,7.485,0Z" transform="translate(5.689 48.409) rotate(90)" fill="#e4c590"/>
    <path id="Path_6" data-name="Path 6" d="M7.447,0A3.51,3.51,0,0,0,4.686,1.407C4.293,1.959,4.3,2.92,3.93,3.389l-1.785.62L1.426,2.965A3.782,3.782,0,0,1,1.562.832C1.744.219.806-.2.511.393c-1.051,2.1-.575,5.235,2.315,5.3a2.541,2.541,0,0,0,2.481-1.74c.408-.945.537-2.065,1.717-2.4,1.649-.469,2.33,1.271,2.133,2.579-.106.719.9,1.324,1.293.537A3.3,3.3,0,0,0,7.447,0Z" transform="translate(5.689 60.549) rotate(90)" fill="#e4c590"/>
    <path id="Path_43" data-name="Path 43" d="M1.506.344a.756.756,0,0,0-.9-.295A.756.756,0,0,0,.19.9c.053.159.053,0,0,.166s-.121.182-.144.287A1.694,1.694,0,0,0,0,1.743.756.756,0,0,0,.954,2.5C1.914,2.287,1.99,1.024,1.506.344Z" transform="translate(2.931 6.373) rotate(90)" fill="#e4c590"/>
    <path id="Path_44" data-name="Path 44" d="M1.506.344a.756.756,0,0,0-.9-.295A.756.756,0,0,0,.19.9c.053.159.053,0,0,.166s-.121.182-.144.287A1.694,1.694,0,0,0,0,1.743.756.756,0,0,0,.954,2.5C1.914,2.287,1.99,1.024,1.506.344Z" transform="translate(2.931 18.475) rotate(90)" fill="#e4c590"/>
    <path id="Path_45" data-name="Path 45" d="M1.506.344a.756.756,0,0,0-.9-.295A.756.756,0,0,0,.19.9c.053.159.053,0,0,.166s-.121.182-.144.287A1.694,1.694,0,0,0,0,1.743.756.756,0,0,0,.954,2.5C1.914,2.287,1.99,1.024,1.506.344Z" transform="translate(2.931 30.577) rotate(90)" fill="#e4c590"/>
    <path id="Path_46" data-name="Path 46" d="M1.506.344a.756.756,0,0,0-.9-.295A.756.756,0,0,0,.19.9c.053.159.053,0,0,.166s-.121.182-.144.287A1.694,1.694,0,0,0,0,1.743.756.756,0,0,0,.954,2.5C1.914,2.287,1.99,1.024,1.506.344Z" transform="translate(2.931 42.679) rotate(90)" fill="#e4c590"/>
    <path id="Path_47" data-name="Path 47" d="M1.506.344a.756.756,0,0,0-.9-.295A.756.756,0,0,0,.19.9c.053.159.053,0,0,.166s-.121.182-.144.287A1.694,1.694,0,0,0,0,1.743.756.756,0,0,0,.954,2.5C1.914,2.287,1.99,1.024,1.506.344Z" transform="translate(2.931 54.782) rotate(90)" fill="#e4c590"/>
    <path id="Path_48" data-name="Path 48" d="M1.506.344a.756.756,0,0,0-.9-.295A.756.756,0,0,0,.19.9c.053.159.053,0,0,.166s-.121.182-.144.287A1.694,1.694,0,0,0,0,1.743.756.756,0,0,0,.954,2.5C1.914,2.287,1.99,1.024,1.506.344Z" transform="translate(2.931 66.884) rotate(90)" fill="#e4c590"/>
    <path id="Path_85" data-name="Path 85" d="M1.539.459A.658.658,0,0,0,.782.013C-.08.134-.1,1.427.117,2.055A.658.658,0,0,0,1.38,1.707a.756.756,0,0,1,.061-.484,1.044,1.044,0,0,0,.1-.764Z" transform="translate(5.135 1.642) rotate(90)" fill="#e4c590"/>
    <path id="Path_86" data-name="Path 86" d="M1.539.459A.658.658,0,0,0,.782.013C-.08.134-.1,1.427.117,2.055A.658.658,0,0,0,1.38,1.707a.756.756,0,0,1,.061-.484,1.044,1.044,0,0,0,.1-.764Z" transform="translate(5.135 13.745) rotate(90)" fill="#e4c590"/>
    <path id="Path_87" data-name="Path 87" d="M1.539.459A.658.658,0,0,0,.782.013C-.08.134-.1,1.427.117,2.055A.658.658,0,0,0,1.38,1.707a.756.756,0,0,1,.061-.484,1.044,1.044,0,0,0,.1-.764Z" transform="translate(5.135 25.847) rotate(90)" fill="#e4c590"/>
    <path id="Path_88" data-name="Path 88" d="M1.539.459A.658.658,0,0,0,.782.013C-.08.134-.1,1.427.117,2.055a.658.658,0,0,0,1.233-.34.756.756,0,0,1,.061-.484A1.044,1.044,0,0,0,1.539.459Z" transform="translate(5.135 37.949) rotate(90)" fill="#e4c590"/>
    <path id="Path_89" data-name="Path 89" d="M1.539.459A.658.658,0,0,0,.782.013C-.08.134-.1,1.427.117,2.055A.658.658,0,0,0,1.38,1.707a.756.756,0,0,1,.061-.484,1.044,1.044,0,0,0,.1-.764Z" transform="translate(5.135 50.051) rotate(90)" fill="#e4c590"/>
    <path id="Path_90" data-name="Path 90" d="M1.539.459A.658.658,0,0,0,.782.013C-.08.134-.1,1.427.117,2.055A.658.658,0,0,0,1.38,1.707a.756.756,0,0,1,.061-.484,1.044,1.044,0,0,0,.1-.764Z" transform="translate(5.135 62.154) rotate(90)" fill="#e4c590"/>
  </g>
</svg>
