<svg xmlns="http://www.w3.org/2000/svg" width="37.819" height="37.819" viewBox="0 0 37.819 37.819">
  <path id="Path_128" data-name="Path 128" d="M18.91,3.152A15.758,15.758,0,1,1,3.152,18.91,15.776,15.776,0,0,1,18.91,3.152ZM18.91,0a18.91,18.91,0,1,0,18.91,18.91A18.911,18.911,0,0,0,18.91,0Zm0,9.455a9.455,9.455,0,0,0-2.988,18.426c.473.088.624-.2.624-.455v-1.76c-2.63.572-3.178-1.114-3.178-1.114a2.5,2.5,0,0,0-1.049-1.384c-.857-.588.065-.575.065-.575a1.985,1.985,0,0,1,1.45.975,2.014,2.014,0,0,0,2.751.786,2.01,2.01,0,0,1,.6-1.264c-2.1-.24-4.307-1.051-4.307-4.672a3.655,3.655,0,0,1,.974-2.537,3.409,3.409,0,0,1,.091-2.506s.794-.254,2.6.969a8.965,8.965,0,0,1,4.735,0c1.806-1.223,2.6-.969,2.6-.969a3.406,3.406,0,0,1,.095,2.5,3.647,3.647,0,0,1,.972,2.537c0,3.632-2.212,4.431-4.318,4.664a2.254,2.254,0,0,1,.649,1.751v2.594c0,.252.151.547.63.454A9.455,9.455,0,0,0,18.91,9.455Z" fill="#e4c590"/>
</svg>
