<svg xmlns="http://www.w3.org/2000/svg"  viewBox="0 0 576.095 630.624">
  <path id="noun-about-760871" d="M591.055,223.308a90.756,90.756,0,0,0-4.217-29.028c-9.076-27.408-24.334-50.139-49.9-64.912Q447.831,77.884,358.815,26.3a106.279,106.279,0,0,0-51.726-14.609c-20.339-.526-39.658,3.149-57.546,13.532C189.719,59.942,129.526,94.067,69.974,129.253,34.468,150.241,15.782,182.5,15.338,223.711c-.723,68.908-.173,137.815-.222,206.723a92.311,92.311,0,0,0,4.817,30.993c9.372,26.636,24.507,48.725,49.556,63.153Q157.9,575.508,246.131,626.749c15.431,9.01,31.692,14.337,49.424,15.3,21.662,1.192,42.264-2.326,61.336-13.408q89.143-51.73,178.492-103.1a107.4,107.4,0,0,0,39.23-38.745c9.421-15.653,16.055-32.39,16.22-50.879.3-36.3.09-72.607.09-108.911h.1Q591.023,275.153,591.055,223.308ZM300.586,460.826a12.331,12.331,0,1,1-24.663,0v-4.16a12.331,12.331,0,0,1,24.663,0ZM389.5,284.208c-3.65,34.092-24.564,61.04-63.926,82.349-23.323,12.619-26.1,31.692-25.674,41.943a12.339,12.339,0,0,1-11.822,12.833c-.173.008-.345.008-.518.008A12.335,12.335,0,0,1,275.25,409.52c-.526-12.866,2.179-44.935,38.581-64.641,32.127-17.387,48.38-37.5,51.15-63.285,3.272-30.6-12.348-67.05-47.772-74.358-32.029-6.56-53.543,6.708-61.3,12.734-10.917,8.492-15.168,17.552-15.348,21.572a12.328,12.328,0,0,1-24.63-1.134c.608-13.367,9.9-28.28,24.844-39.9,22.1-17.173,51.775-23.536,81.4-17.412C371.862,193.294,393.951,242.816,389.5,284.208Z" transform="translate(-14.961 -11.645)" fill="#e4c590"/>
</svg>
