<svg id="Group_41" data-name="Group 41" xmlns="http://www.w3.org/2000/svg" xmlns:xlink="http://www.w3.org/1999/xlink" width="92.376" height="187.604" viewBox="0 0 92.376 187.604">
  <defs>
    <clipPath id="clip-path">
      <rect id="Rectangle_8" data-name="Rectangle 8" width="92.376" height="187.604" fill="none"/>
    </clipPath>
    <clipPath id="clip-path-2">
      <path id="Path_45" data-name="Path 45" d="M44.693,116.35c-1.8.218-3.927.928-4.431,2.819-.642,2.4,1.859,4.237,4.032,5.023s4.835,1.827,5.188,4.29a21.878,21.878,0,0,0-6.946,3.816,9.46,9.46,0,0,0-3.328,7.382c.155,2.213,1.323,4.387.75,6.537-1.184,4.4-8.045,4.076-9.643,8.371-1.1,2.924.984,5.851,2.1,8.71,1.093,2.791,1.273,5.919,1.878,8.9s1.8,6.08,4.2,7.64c5.034,3.286,14.429-5.019,13.279-11.093-.755-3.946-3.6-6.925-5.936-10.033s-4.318-7.28-2.928-11.029c1.353-3.652,5.3-5.19,8.856-5.663s7.4-.432,10.265-2.557c4.861-3.574,4.25-12.346-.1-17.4-3.624-4.193-8.919-5.92-14.14-5.919a24.359,24.359,0,0,0-3.1.2M8.858,75.743C5.019,78.079.986,82.383.155,86.82A8.6,8.6,0,0,0,0,88.363V88.5a11.228,11.228,0,0,0,1.7,5.343c1.857,3.47,3.895,7.2,7.654,8.849,2.575,1.12,6.093,1.47,7.33,4.455,1.512,3.664-1.406,8.832-.507,12.823.816,3.643,4.717,5.312,8.427,4.931,3.12-.412,11.883-2.874,11.013-7.985-.851-4.948-8.451-2.468-10.393-6.163h0c-1.213-2.32.247-5.868-1.038-8.12-1.843-3.229-7.535-1.043-9.149-4.063-1.126-2.107.512-5.478,2.5-7.7s4.476-4.026,5.827-6.674c2.138-4.167.27-9.122-3.1-10.622a7.648,7.648,0,0,0-3.152-.638,16.428,16.428,0,0,0-8.252,2.8M48.137,4.978c-1.572,1.685-2.658,3.856-4.385,5.465-2.974,2.763-7.286,3.539-11.146,3.9-3.861.34-7.641.369-11.346,2.092-5.492,2.525-10.334,8.9-12.733,15.363-1.628,4.437-1.786,9.508,1.3,9.454,1.237-.007,2.719-.824,4.073-.976,3.309-.35,5.108,3.064,8.3,3.884,3.173.83,7.137-.858,10.747-2.433s7.473-3.139,11.09-2.065,6.407,5.941,4.322,9.144c-1.415,2.19-4.3,2.748-6.856,2.876s-5.222.008-7.531,1.418S30.1,58.124,31.7,59.9c-2.439-.646-5.293,2.132-5.806,4.942a6.968,6.968,0,0,0,2.747,6.782c6.822,5.353,12.317-2.652,19.56-4.793,7.824-2.274,16.313-.765,23.7,3.812,3.368,2.046,7.52,4.773,9.69,2.893,2.049-1.763.595-6.384-.935-10.117C76.831,54.249,72.264,43.744,64.112,39.1c-3.968-2.225-8.318-2.577-12.53-3.541-4.214-1-8.715-2.975-10.208-7.024-1.757-4.755,1.3-10.232,4.256-14.49,3.185-.3,6.622-.416,8.973-2.33,2.349-1.893,2.58-6.61-.332-8.334a3.727,3.727,0,0,0-1.9-.51,6.12,6.12,0,0,0-4.237,2.109M31.6.514c-2.085.552-4.6,2.317-4.666,4.49A2.35,2.35,0,0,0,29.1,7.369c1.167.062,7.883-1.683,9.2-1.766A5.186,5.186,0,0,0,39.884.756,13.689,13.689,0,0,0,35.386,0,14.378,14.378,0,0,0,31.6.514" fill="none"/>
    </clipPath>
  </defs>
  <g id="Group_38" data-name="Group 38">
    <g id="Group_37" data-name="Group 37" clip-path="url(#clip-path)">
      <path id="Path_38" data-name="Path 38" d="M51.769,168.75h0c-.755-3.945-3.6-6.924-5.936-10.033s-4.317-7.28-2.928-11.029c1.352-3.652,5.3-5.19,8.856-5.662s7.4-.432,10.265-2.557c4.862-3.575,4.25-12.347-.1-17.4-4.345-5.03-11.094-6.51-17.237-5.721-1.8.218-3.927.927-4.432,2.819-.642,2.4,1.86,4.237,4.032,5.022s4.835,1.828,5.188,4.291a21.909,21.909,0,0,0-6.946,3.816,9.466,9.466,0,0,0-3.328,7.382c.155,2.213,1.324,4.388.751,6.537-1.185,4.4-8.045,4.076-9.644,8.371-1.1,2.924.984,5.851,2.1,8.71,1.092,2.791,1.272,5.919,1.877,8.9s1.8,6.08,4.2,7.64c5.033,3.286,14.428-5.019,13.278-11.093" fill="#d7d8dc"/>
      <path id="Path_39" data-name="Path 39" d="M24.6,124.9c-3.71.379-7.612-1.288-8.428-4.932-.9-3.991,2.02-9.158.508-12.822-1.238-2.985-4.756-3.335-7.331-4.455-3.758-1.645-5.8-5.379-7.653-8.849C.645,91.87-.4,89.77.155,86.82c.83-4.436,4.864-8.742,8.7-11.077,3.759-2.332,8.033-3.675,11.4-2.167s5.24,6.455,3.1,10.623c-1.351,2.647-3.84,4.451-5.827,6.673s-3.627,5.592-2.5,7.7c1.613,3.02,7.3.833,9.148,4.062,1.285,2.252-.175,5.8,1.038,8.12h0c1.943,3.695,9.544,1.215,10.394,6.163.87,5.111-7.893,7.574-11.012,7.985" fill="#d7d8dc"/>
      <path id="Path_40" data-name="Path 40" d="M71.9,70.646h0c3.368,2.046,7.519,4.773,9.69,2.893,2.048-1.763.595-6.384-.935-10.117C76.831,54.249,72.263,43.743,64.112,39.1c-3.968-2.225-8.319-2.576-12.531-3.541-4.213-1-8.714-2.975-10.208-7.025-1.756-4.754,1.3-10.23,4.257-14.488,3.185-.3,6.622-.417,8.973-2.331,2.348-1.893,2.58-6.61-.332-8.333-2.092-1.216-4.563-.09-6.134,1.6s-2.659,3.857-4.386,5.465c-2.974,2.763-7.285,3.539-11.146,3.9-3.86.34-7.64.369-11.345,2.093-5.492,2.524-10.334,8.9-12.732,15.362-1.629,4.437-1.788,9.508,1.3,9.455,1.237-.008,2.718-.825,4.072-.978,3.31-.35,5.11,3.066,8.3,3.885,3.172.83,7.137-.858,10.747-2.432s7.473-3.14,11.09-2.066,6.407,5.941,4.322,9.144c-1.415,2.19-4.3,2.748-6.856,2.876s-5.223.008-7.531,1.418S30.1,58.124,31.7,59.9c-2.439-.647-5.293,2.133-5.806,4.942a6.974,6.974,0,0,0,2.748,6.783c6.822,5.351,12.316-2.653,19.56-4.794,7.823-2.275,16.313-.765,23.7,3.812" fill="#d7d8dc"/>
      <path id="Path_41" data-name="Path 41" d="M38.309,5.6A5.186,5.186,0,0,0,39.884.756,13.949,13.949,0,0,0,31.6.514c-2.085.551-4.6,2.317-4.667,4.489A2.354,2.354,0,0,0,29.1,7.369c1.167.062,7.883-1.683,9.2-1.766" fill="#d7d8dc"/>
    </g>
  </g>
  <g id="Group_40" data-name="Group 40">
    <g id="Group_39" data-name="Group 39" clip-path="url(#clip-path-2)">
      <path id="Path_42" data-name="Path 42" d="M77.007,55.483h0c.433,5.5-3.358,10.08-8.444,8.215-2.7-1-5.006-3.591-7.758-4.429-3.628-1.091-6.954,1.152-10.428,2.348A19.431,19.431,0,0,1,35.033,60.37c-2.994-1.7-5.794-4.418-9.29-3.32C22.03,58.239,19.634,63.48,20.1,67.2c.472,3.742,3.057,6.256,5.975,8.136,7.457,4.758,17.531,6.488,27.234,7.184,9.69.668,19.145.312,27.894,1.466,3.728.473,7.628,1.2,9.666-.9,1.88-1.933,1.724-5.946.991-9.972a64.029,64.029,0,0,0-9.882-23.626c-1.562-2.313-5.651-8.272-7.657-5.623-1.33,1.767,2.462,8.686,2.681,11.613" fill="#adacb2"/>
      <path id="Path_43" data-name="Path 43" d="M32.171,34.584c-3.513,3.276-8.762,4.229-11.711,2.189-1.473-1.034-2.413-2.761-4-3.453-1.955-.852-4.533.069-6.742.4-2.218.31-4.327-.343-3.988-3.162C.742,39.173.444,48.531,4.157,52.043c3.742,3.55,11.067,3,18.534.805,3.427-1.465,17.18-4.875,19.127-8.568,1.058-2.481-9.916-9.708-9.647-9.7" fill="#adacb2"/>
      <path id="Path_44" data-name="Path 44" d="M57.657,133.052h0a13.581,13.581,0,0,1-16.219,6.094,20.39,20.39,0,0,1-4.618,17.815c3.3,2.183,6.757,4.637,8.461,8.486s.767,9.445-2.837,10.978c-2.195.934-4.644.156-6.993.244s-5.116,1.848-4.793,4.4c.217,1.723,1.743,2.84,3.176,3.584,6.487,3.375,14.028,3.676,20.993,1.825s13.415-5.647,19.312-9.86c4.316-3.094,8.511-6.579,10.6-11.349,2.588-5.917,1.539-13.1-.833-19.776a58.613,58.613,0,0,0-16.51-24.273c-2.1-1.843-8.949-8.14-10.016-3.313-.319,1.458,1.912,5.619,1.975,7.587a14.661,14.661,0,0,1-1.7,7.561" fill="#adacb2"/>
    </g>
  </g>
</svg>
