<svg id="Group_31" data-name="Group 31" xmlns="http://www.w3.org/2000/svg" xmlns:xlink="http://www.w3.org/1999/xlink" width="99.431" height="175.141" viewBox="0 0 99.431 175.141">
  <defs>
    <clipPath id="clip-path">
      <rect id="Rectangle_6" data-name="Rectangle 6" width="99.431" height="175.141" fill="none"/>
    </clipPath>
    <clipPath id="clip-path-2">
      <path id="Path_33" data-name="Path 33" d="M35.616,0A24.274,24.274,0,0,0,23.287,3.111,27.948,27.948,0,0,0,11.6,17.494c-.9,2.571-1.305,5.3-.33,6.667,1.431,2,4.978.442,8.077-.483,3.081-.984,6.951-.609,7.144,2.805a103.456,103.456,0,0,0-14.82,9.91A32.939,32.939,0,0,0,2.506,46.782c-3,5.832-3.2,11.753-1.16,14.7s6.111,3.621,10.638,3.307c4.515-.337,9.488-1.637,14.517-2.527a14.624,14.624,0,0,0,.8,9.847c-7.519,4.758-13.9,12.278-18.467,20.468-2.287,4.1-4.2,8.582-4.212,12.626-.017,4.241,2.053,7.461,4.116,10.674,2.9,4.508,6.041,9.431,11.029,12.048,3.188,1.671,7.073,2.376,9.659,5.211,1.847,2.027,2.884,4.986,5.114,6.563,2.109,1.5,4.825,1.449,7.338,1.913s5.274,1.9,5.834,4.684c.781,3.88-3.158,6.861-6.611,7.785-4.828,1.279-10.53,2.231-10.515,9.064.008,4.5,2.528,7.784,6.4,8.749,10.386,2.617,20.528-8.762,27.548-15.431,4.6-4.43,9.667-9.953,8.362-16.567-.985-5.027-5.312-8.541-9.326-11.406-4.036-2.887-8.1-5.71-12.193-8.411a97.156,97.156,0,0,0-8.355-5.074c-2.2-1.157-4.582-2.251-5.893-4.448a8.567,8.567,0,0,1-1.093-3.861c-.3-4.788,2.463-9.653,6.183-12.529s8.258-3.983,12.708-4.319c2.785-.216,5.59-.166,8.365-.117a75.483,75.483,0,0,0,9.046-.194c5.605-.611,10.977-2.687,13.077-7.571,2.086-4.835-.272-13.494-5.748-16.737-1.875-1.079-3.887-1.377-5.809-2.31s-3.909-2.963-3.814-5.1c.1-2.188,2.238-3.165,2.836-5.1,1.024-3.293-2.549-7.2-5.631-9.6-3.07-2.42-6.657-6.184-5.265-9.482,1.213-2.879,5.086-2.406,8.119-1.6,3.046.748,6.882.937,7.08-2.173.162-2.475-2.263-5.227-4.6-6.472s-4.887-1.715-7.068-3.317c-3.049-2.228-4.466-6.141-6.528-9.338C54.4,3.592,46.254.574,38.678.111,37.78.044,36.88,0,35.979,0Z" fill="none"/>
    </clipPath>
  </defs>
  <g id="Group_28" data-name="Group 28">
    <g id="Group_27" data-name="Group 27" clip-path="url(#clip-path)">
      <path id="Path_30" data-name="Path 30" d="M64.534,156.467h0c4.6-4.429,9.667-9.952,8.363-16.566-.986-5.027-5.313-8.541-9.327-11.406-4.036-2.888-8.1-5.71-12.193-8.412a97.4,97.4,0,0,0-8.355-5.073c-2.2-1.158-4.581-2.251-5.893-4.449a8.575,8.575,0,0,1-1.093-3.86c-.295-4.788,2.463-9.653,6.184-12.528s8.258-3.984,12.708-4.321c5.866-.454,11.819.268,17.411-.311,5.6-.61,10.976-2.687,13.076-7.57,2.086-4.835-.272-13.494-5.748-16.737-1.875-1.08-3.887-1.378-5.809-2.311s-3.909-2.963-3.813-5.1c.1-2.188,2.237-3.165,2.835-5.1,1.024-3.292-2.549-7.2-5.631-9.6-3.07-2.42-6.657-6.185-5.265-9.483,1.213-2.878,5.086-2.406,8.119-1.6,3.047.748,6.883.937,7.081-2.174.162-2.475-2.265-5.227-4.6-6.471s-4.886-1.715-7.067-3.318c-3.05-2.228-4.466-6.141-6.529-9.338C54.4,3.592,46.254.574,38.678.11c-5.171-.383-10.437.134-15.391,3A27.948,27.948,0,0,0,11.6,17.494c-.9,2.571-1.305,5.3-.33,6.666,1.431,2.005,4.977.443,8.078-.482,3.08-.985,6.95-.609,7.143,2.805a103.448,103.448,0,0,0-14.82,9.909,32.946,32.946,0,0,0-9.167,10.39c-3,5.832-3.2,11.753-1.158,14.7s6.111,3.62,10.638,3.306c4.514-.336,9.488-1.637,14.517-2.526a14.619,14.619,0,0,0,.8,9.847C19.784,76.871,13.408,84.391,8.836,92.581c-2.288,4.1-4.2,8.582-4.212,12.627-.018,4.24,2.052,7.461,4.115,10.674,2.9,4.508,6.042,9.431,11.029,12.047,3.189,1.671,7.073,2.376,9.66,5.212,1.846,2.026,2.883,4.986,5.113,6.563,2.109,1.5,4.826,1.448,7.339,1.913s5.273,1.9,5.833,4.683c.781,3.881-3.158,6.862-6.611,7.785-4.828,1.28-10.529,2.232-10.515,9.065.008,4.5,2.528,7.784,6.4,8.749,10.386,2.617,20.528-8.763,27.548-15.432" fill="#d7d8dc"/>
    </g>
  </g>
  <g id="Group_30" data-name="Group 30">
    <g id="Group_29" data-name="Group 29" clip-path="url(#clip-path-2)">
      <path id="Path_31" data-name="Path 31" d="M41.314,32.98a15.545,15.545,0,0,0,8.343,4.089c3.361.016,21.843,4.512,14.779-5-2.961-4.121-6.947-.412-10.392.486-2.592.534-10.506,2.443-12.73.428" fill="#adacb2"/>
      <path id="Path_32" data-name="Path 32" d="M61.384,55.826A30.486,30.486,0,0,1,69,63.235c2,3.054,3.06,7.015,1.88,9.965-1.577,3.935-6.4,4.845-10.7,4.618A35.016,35.016,0,0,1,40.568,70.38C33.62,75.354,23.6,74.267,20.009,68.013c.758,6.724,5.938,11.028,12,13.154,6.053,2.078,12.918,2.274,19.623,2.992a31.843,31.843,0,0,1-24.053,7.48c2.231,4.608,1.447,11.127-1.855,15.711-3.3,4.6-8.887,7.111-13.483,6.5,1.9,3.506,6.271,4.585,10.474,4.49s8.505-1.2,12.767-.908c7.913.533,14.875,5.825,20.974,11.636,3.511,3.337,7.121,7.546,7.114,12.572-.006,5.195-3.823,9.163-7.131,12.847s-6.606,8.648-5.352,13.7c1.084,4.373,5.352,6.926,9.353,6.952s7.805-1.886,11.439-3.762c6.454-3.338,13.034-6.872,17.524-12.36,5.636-6.892,7.215-15.99,7.413-25.01.189-8.972-.785-18.416.271-27.042.945-7.663,3.339-14.319,1.878-22.8-1.08-6.317-4.194-13.26-8.173-19.452a87.613,87.613,0,0,0-8.1-10.577c-2.791-3.136-4.395-5.954-7.037-4.56-2.179,1.175-3.227,4.059-5.9,5.2-1.564.631-6.478,2.4-8.373,1.038" fill="#adacb2"/>
    </g>
  </g>
</svg>
