<svg id="Group_11" data-name="Group 11" xmlns="http://www.w3.org/2000/svg" xmlns:xlink="http://www.w3.org/1999/xlink" width="127.562" height="155.698" viewBox="0 0 127.562 155.698">
  <defs>
    <clipPath id="clip-path">
      <rect id="Rectangle_2" data-name="Rectangle 2" width="127.562" height="155.698" fill="none"/>
    </clipPath>
    <clipPath id="clip-path-2">
      <path id="Path_12" data-name="Path 12" d="M50.365.51C43.852,2.061,37.406,8.842,36.572,16.134c-7.495-1.673-16.018,2.21-22.749,9.792-4.128,4.586-7.964,11.5-7.669,16.235.237,3.832,3.122,5.008,6.095,5.856a97.557,97.557,0,0,0,11.974,2.457c1.922.266,4.282,1.055,4.114,3.528-.173,2.51-2.788,4.258-4.868,5.413C17.576,62.613,11.2,68,9.386,74.873c-1.652,6.174,1.358,10.935,5.786,12.912,4.419,1.934,9.94,1.663,15.345,1.818a9.021,9.021,0,0,1,4.757,1.062,4.551,4.551,0,0,1,1.919,4.758c-.64,2.654-3.346,3.787-5.388,5.283-5.643,4.2-7.244,13.981-3.115,19.038,2.613,3.222,6.692,4.446,9.952,7.055,3.44,2.753,5.866,6.948,8.464,10.885s5.618,7.856,9.6,9.546a8.92,8.92,0,0,0,9.131-1.389c1.993-1.5,6.261-3.169,7.173-5.758.865-2.46.688-5.341,1.711-7.707,1.308-3.022,4.2-4.424,6.624-6.159s4.761-4.8,3.9-8.046c-.82-3.092-3.921-4.351-6.4-5.843s-4.887-5.189-3.18-7.671c.955-1.384,2.713-1.485,4.253-1.36,4.833.385,10.3,1.69,13.8-1.622,1.638-1.546,2.561-3.928,4.269-5.289,2.73-2.169,6.626-1.176,10.03-1.153,6.328-.047,11.842-4.148,11.5-11.073-.318-6.614-5.529-14.138-11.328-18.276s-12.206-5.515-18.6-7.18c-2.3-.615-5.181-1.921-5.545-4.6-.42-3.115,2.911-4.339,5.524-4.442a95.325,95.325,0,0,1,13.416.3c4.112.351,8.767.7,9.828-3.186,1.123-4.1-2.515-10.438-6.3-14.639C98.951,23.677,89.261,18.7,79.969,19.52,81,16.5,79.657,12.585,77.444,9.932a22.956,22.956,0,0,0-8.022-5.644C64.655,1.973,59.685,0,54.65,0a17.871,17.871,0,0,0-4.285.51" fill="none"/>
    </clipPath>
  </defs>
  <g id="Group_8" data-name="Group 8">
    <g id="Group_7" data-name="Group 7" clip-path="url(#clip-path)">
      <path id="Path_5" data-name="Path 5" d="M73.011,140.083h0c.865-2.46.688-5.342,1.711-7.707,1.308-3.022,4.2-4.425,6.625-6.16s4.761-4.794,3.9-8.045c-.82-3.092-3.922-4.351-6.4-5.844s-4.887-5.188-3.179-7.67c.955-1.384,2.712-1.485,4.254-1.36,4.833.385,10.294,1.689,13.8-1.622,1.639-1.546,2.561-3.928,4.269-5.289,2.73-2.169,6.626-1.177,10.029-1.153,6.329-.048,11.843-4.148,11.5-11.073-.318-6.614-5.529-14.139-11.328-18.276s-12.206-5.515-18.6-7.18c-2.3-.616-5.182-1.922-5.545-4.6-.42-3.116,2.91-4.34,5.524-4.443a95.492,95.492,0,0,1,13.417.3c4.11.351,8.767.7,9.826-3.186,1.124-4.1-2.514-10.438-6.3-14.639C98.952,23.676,89.261,18.7,79.97,19.519,81,16.5,79.657,12.585,77.444,9.932a22.942,22.942,0,0,0-8.023-5.644C63.307,1.318,56.86-1.088,50.365.51,43.852,2.061,37.406,8.842,36.572,16.134c-7.494-1.674-16.018,2.21-22.749,9.792-4.128,4.586-7.964,11.5-7.668,16.235.236,3.832,3.121,5.007,6.094,5.855a97.568,97.568,0,0,0,11.975,2.458c1.921.266,4.281,1.055,4.113,3.527-.173,2.511-2.788,4.259-4.868,5.414C17.576,62.612,11.206,68,9.386,74.872c-1.652,6.175,1.358,10.935,5.786,12.912,4.419,1.935,9.94,1.664,15.346,1.818a9.02,9.02,0,0,1,4.756,1.062,4.555,4.555,0,0,1,1.92,4.759c-.64,2.654-3.346,3.786-5.389,5.283-5.643,4.2-7.244,13.981-3.115,19.037,2.613,3.222,6.692,4.446,9.953,7.056,3.44,2.753,5.865,6.948,8.463,10.885s5.618,7.855,9.6,9.545a8.916,8.916,0,0,0,9.13-1.388c1.993-1.5,6.261-3.169,7.173-5.758" fill="#d7d8dc"/>
    </g>
  </g>
  <g id="Group_10" data-name="Group 10">
    <g id="Group_9" data-name="Group 9" clip-path="url(#clip-path-2)">
      <path id="Path_6" data-name="Path 6" d="M113.474,85.916h0c-3.8.092-8.211-1.844-11.532-5.374-7.759,4.17-18.824,3.45-27.365-2.531,3.743,3.03,7.455,6.164,11.13,9.359,1.2,1.045,2.5,2.268,2.813,3.922.492,2.6-1.845,4.587-4.1,4.669S79.951,94.884,77.69,94.4c-5.258-1.126-10.4,1.463-15.421,3.528s-10.889,3.531-15.351.543c.38,4.27,4.142,6.922,7.778,7.717s7.454.31,11.069,1.361,7.245,4.368,7.29,8.724c-1.031-1.59-3.3.1-3.492,2.066s.653,3.89.7,5.872c.062,2.485-1.112,4.735-2.239,6.825-3.887,7.19-8.85,15.255-15.96,15.522-2,.077-4.506-.207-5.492,1.863a4.231,4.231,0,0,0,.944,4.464,7.487,7.487,0,0,0,3.84,1.848c12.648,3.059,26.289-1.335,36.378-10.833,11.778-11.019,18.053-27.676,28.44-36.8,2.652-2.315,5.544-4.073,7.8-6.4a11.781,11.781,0,0,0,3.55-9.371c-.208-2.539-2.7-10.038-5.83-10.272-1-.066-2.231,2.616-3.106,3.236a9.3,9.3,0,0,1-5.114,1.625" fill="#adacb2"/>
      <path id="Path_7" data-name="Path 7" d="M36.914,121.695h0c6,1.549,12.345,1.38,18.619,1.314-3.5,2.843-7.018,5.731-10.918,7.627s-8.279,2.745-12.253,1.5a15.41,15.41,0,0,1-7.5-5.579c-1.231-1.668-5.074-7.517-3.842-9.9,2.013-4.188,13.01,4.128,15.9,5.044" fill="#adacb2"/>
      <path id="Path_8" data-name="Path 8" d="M26.325,81.638h0c4.218-1.485,8.316-4.08,12.65-5.207s9.317-.319,11.708,3.811c-4.365.265-8.2,5.629-7.743,10.529-5.36,4.784-11.588,8.379-17.907,9.621s-12.685.053-16.656-3.68C6.307,94.6.822,81.8,7.113,80.474c2.583-.536,5.637,2.285,8.49,2.571a25.427,25.427,0,0,0,10.722-1.407" fill="#adacb2"/>
      <path id="Path_9" data-name="Path 9" d="M94.766,42.932h0C80.838,38.7,66.037,41.494,53.206,49.9c17.956,5.638,37.99,4.648,55.422,8.524,3.3.723,6.73,1.617,9.082.381,3.422-1.722,3.24-15.029-3.3-16.344-2.61-.407-4.3,3.164-7.13,3.427-3.779.355-8.314-1.71-12.51-2.955" fill="#adacb2"/>
      <path id="Path_10" data-name="Path 10" d="M49.35,23.178c5.926,4.314,14.323,4.8,21.5,2.7,3.925-1.32,12.923-4.368,14.471-8.607,1.312-3.669-2.944-3.083-5.771-2.887-2.433.14-4.831.884-7.33.864-1.475-.013-3.263-.9-4.633-.752-1.91.219-1.665.454-3.323,1.663-2.728,1.89-11.235,9.626-14.909,7.014" fill="#adacb2"/>
      <path id="Path_11" data-name="Path 11" d="M22.832,36.986h0c2.816,2.688,7.349,3.4,11.91,1.942,2.535-.819,5.02-2.288,7.6-2.962a12.008,12.008,0,0,1,11.373,2.959c-7.63,4.591-15.245,9.851-23.127,13.637S14.418,58.7,8.323,57.52c-2.9-1.084-12.9-7.4-5.866-14.18,2.628-2.614,5.814-.258,8.425-.6a24.7,24.7,0,0,0,11.95-5.754" fill="#adacb2"/>
    </g>
  </g>
</svg>
