<svg id="Group_21" data-name="Group 21" xmlns="http://www.w3.org/2000/svg" xmlns:xlink="http://www.w3.org/1999/xlink" width="106.909" height="169.53" viewBox="0 0 106.909 169.53">
  <defs>
    <clipPath id="clip-path">
      <rect id="Rectangle_4" data-name="Rectangle 4" width="106.909" height="169.53" fill="none"/>
    </clipPath>
    <clipPath id="clip-path-2">
      <path id="Path_23" data-name="Path 23" d="M45.739.222C41.711.58,36.849,2.214,35.349,6.5c-.753,2.128-.4,4.314-1.068,6.456-1.29,4.112-5.656,6.521-9.284,8.033-3.643,1.458-7.515,2.971-10.253,6.785C11.062,32.969,11.211,39.43,13.8,42.4c2.6,2.991,7.037,3.714,11.428,4.836-3.344,3.448-7.444,5.386-11.106,8.215-3.678,2.8-7.351,7.249-8.159,11.684-.748,4.086,1.3,6.808,4.222,7.688,2.919.861,6.553.239,10.16-.3s7.383-1.005,10.751.2c3.265,1.157,6.158,5.228,4.31,8.925-1.178,2.362-3.688,3.429-5.725,4.943a17.819,17.819,0,0,0-6.8,12.835,12.882,12.882,0,0,0,5.519,11.6c2.195,1.4,4.839,2.036,6.985,3.664s3.741,4.835,2.581,7.6c-.807,1.925-2.79,3.314-2.885,5.4-.082,1.771,1.271,3.122,1.717,4.808.741,2.8-1.086,5.639-1.931,8.448-1.912,6.342,1.607,13.469,6.826,16.557,7.486,4.417,19.485,1.691,25.73-4.64,2.278-2.316,3.588-6.208,2.209-9.351-1.452-3.313-5.253-4.665-6.765-7.959-1.454-3.167-.2-7.2,2.087-9.545s5.363-3.382,8.326-4.292,6.013-1.821,8.238-3.947a11.521,11.521,0,0,0,3-10.288,14.333,14.333,0,0,0-6.563-9.63c-1.882-1.08-3.967-1.552-5.8-2.738s-5.144-5.869-4.611-8.017c.375-1.516,2.455-8.572,3.786-7.779,17.352,10.7,14.84-.718,22.618-.948,2.947.036,6.035.624,8.267-.422s3.177-4.6,1.13-8.048c-1.781-3.034-5.486-5.1-5.9-8.189-.165-1.255.358-2.142.538-3.217.521-3.112-1.934-7.654-4.839-10.377s-6.224-4.084-9.483-5.726a7.053,7.053,0,0,1-3.1-2.517,3.807,3.807,0,0,1,2.094-5.491c1.907-.668,4.238-.462,5.5-1.891,1.756-1.974.568-6.619-1.811-9.822a22.3,22.3,0,0,0-8.779-6.6c-3.16-1.508-6.518-2.808-9.227-5.3-2.866-2.627-4.617-6.391-7.407-8.972C57.774.864,53.694,0,49.6,0a36.668,36.668,0,0,0-3.864.222" fill="none"/>
    </clipPath>
  </defs>
  <g id="Group_18" data-name="Group 18">
    <g id="Group_17" data-name="Group 17" clip-path="url(#clip-path)">
      <path id="Path_19" data-name="Path 19" d="M67.423,154.86c2.277-2.316,3.588-6.208,2.209-9.351-1.452-3.313-5.253-4.665-6.766-7.959-1.453-3.167-.2-7.2,2.088-9.545s5.363-3.383,8.326-4.292,6.012-1.821,8.238-3.947a11.522,11.522,0,0,0,3-10.288,14.337,14.337,0,0,0-6.563-9.63c-1.882-1.079-3.967-1.552-5.8-2.738s-5.144-5.87-4.611-8.017c.375-1.516,2.455-8.572,3.786-7.78,17.352,10.7,14.84-.717,22.618-.947,2.946.036,6.035.624,8.267-.422s3.176-4.6,1.13-8.048c-1.781-3.034-5.486-5.1-5.9-8.189-.165-1.255.358-2.142.538-3.217.521-3.112-1.934-7.655-4.839-10.376s-6.223-4.085-9.483-5.727a7.053,7.053,0,0,1-3.1-2.517,3.808,3.808,0,0,1,2.094-5.492c1.907-.668,4.238-.461,5.5-1.89,1.757-1.974.569-6.619-1.81-9.822a22.3,22.3,0,0,0-8.779-6.6c-3.16-1.508-6.518-2.808-9.227-5.3-2.866-2.627-4.616-6.391-7.407-8.972C56.772-.064,51.017-.34,45.739.222,41.711.58,36.849,2.214,35.349,6.5c-.753,2.128-.4,4.314-1.068,6.456-1.29,4.112-5.656,6.521-9.284,8.032-3.643,1.458-7.515,2.972-10.253,6.786C11.062,32.968,11.211,39.43,13.8,42.4c2.6,2.991,7.037,3.713,11.427,4.836-3.343,3.448-7.443,5.386-11.106,8.215-3.676,2.8-7.35,7.249-8.158,11.684-.748,4.086,1.3,6.807,4.222,7.687,2.919.862,6.553.24,10.16-.3s7.382-1.005,10.75.2c3.266,1.157,6.159,5.228,4.311,8.925-1.178,2.361-3.687,3.429-5.726,4.943a17.823,17.823,0,0,0-6.8,12.835A12.884,12.884,0,0,0,28.4,113.021c2.2,1.4,4.839,2.037,6.986,3.666s3.741,4.834,2.581,7.6c-.807,1.926-2.79,3.315-2.885,5.4-.082,1.771,1.271,3.122,1.717,4.808.741,2.8-1.086,5.639-1.931,8.448-1.912,6.341,1.608,13.469,6.826,16.558,7.486,4.416,19.485,1.69,25.73-4.641" fill="#d7d8dc"/>
    </g>
  </g>
  <g id="Group_20" data-name="Group 20">
    <g id="Group_19" data-name="Group 19" clip-path="url(#clip-path-2)">
      <path id="Path_20" data-name="Path 20" d="M70.719,30.609h0a16.045,16.045,0,0,1-13.582,3.874,17.221,17.221,0,0,1-12.159-8.347C39.027,32.15,28.964,33.32,24.34,28.7,18.71,38.632,7.8,45.7,1.266,46.222c2.918,1.272,6.438,2.926,11.107.837,3.641-1.618,7.126-5.287,10.884-7.546,8.316-5.153,18.2-1.053,21.574,7.8.1-4.4,4.08-8.048,8.1-8.839,4.016-.807,8.119.446,12.142,1.379C70.8,41.181,76.506,41.868,82,43.118c3.832.867,7.644,2.016,11.013,2.1,3.525.029,7.323-1.2,7.36-5.623a7.692,7.692,0,0,0-5.508-7.737c-3.8-1.049-5.759,2.266-9.215,2.993-4.42.933-10.246-.632-14.934-4.24" fill="#adacb2"/>
      <path id="Path_21" data-name="Path 21" d="M29.2,16.507h0c.812,3.476,3.663,5.544,6.91,6.556a21.37,21.37,0,0,0,12.249-.175c2.563-.867,9.292-2.923,5.412-6.278-2.535-2.238-8.6.65-11.663,1a33.81,33.81,0,0,1-12.908-1.1" fill="#adacb2"/>
      <path id="Path_22" data-name="Path 22" d="M91.114,75.266h0c-3.22-2.284-5.957-5.721-9.287-7.8-8.642-5.541-19.652.335-27.547-5.368,4.407,1.644,8.8,3.549,13.143,5.678,1.506.735,3.192,1.739,3.68,3.461.8,2.806-2.138,4.535-4.625,5.113a54.739,54.739,0,0,1-17.012,1.083c-2.791-.264-5.761-.841-7.581-3.012s-1.654-6.488.925-7.951c-4.584,2.4-10.1,2.23-13.766-.4C19.047,72.293,7.892,75.077,0,74.719c.769,5.047,5.288,6.665,10.292,7.122,4.977.4,10.639-.169,15.777,1.583,7.094,2.438,12.954,9.08,20.875,10.534,3.45.645,7.028.267,10.537.708s7.2,1.928,9.286,5.2c2.558,4.023,1.854,9.659-.878,13.159s-7.067,5.157-11.324,5.52-8.513-.444-12.7-1.11c3.322,1.67,6.731,3.518,9.2,6.6s3.828,7.692,2.394,11.528c4.377,2.411,5.978,9.123,4.284,14.256a17.7,17.7,0,0,1-10.469,10.56c-4.531,1.8-9.393,2.038-14.172,2.284a9.7,9.7,0,0,0,6.272,6.078,23.334,23.334,0,0,0,8.485.713c11.428-.433,23.225-1.3,33.578-6.729,10.38-5.574,18.825-15.819,17.872-27.662-.686-8.981-6.32-18.4-5.911-27.58.325-7.168,4.283-12.395,7.677-16.856,2.932-3.941,7.065-8.932,5.481-15.811-3.814,2.565-8.191,5.62-15.444.446" fill="#adacb2"/>
    </g>
  </g>
</svg>
