<svg id="Group_51" data-name="Group 51" xmlns="http://www.w3.org/2000/svg" xmlns:xlink="http://www.w3.org/1999/xlink" width="76.655" height="172.511" viewBox="0 0 76.655 172.511">
  <defs>
    <clipPath id="clip-path">
      <rect id="Rectangle_10" data-name="Rectangle 10" width="76.655" height="172.511" fill="none"/>
    </clipPath>
    <clipPath id="clip-path-2">
      <path id="Path_69" data-name="Path 69" d="M42.846,164.778a1.907,1.907,0,0,0-.811,1c-3.985,9.1,10.155,8.23,5.553,1.837a9.753,9.753,0,0,0-2.827-2.374,2.9,2.9,0,0,0-1.435-.57,1.093,1.093,0,0,0-.48.107M40,130.382c-.611.951-.805,2.194-1.551,3.028-1.356,1.512-3.688.946-5.552,1.6-2.658.931-4.058,4.325-3.861,7.3s1.6,5.654,2.964,8.242c1,1.882,4.5,9.413,6.488,6.033,1.659-2.808-1.935-7.244.113-10.766,1.624-2.789,4.976-3.514,7.911-4.264a12.71,12.71,0,0,0,5.189-2.336,5.872,5.872,0,0,0,2.131-5.3,6.31,6.31,0,0,0-3.141-4.231,11.422,11.422,0,0,0-4.969-1.29c-.312-.023-.631-.036-.952-.036-1.843,0-3.753.433-4.77,2.021M58.6,113.84a12.456,12.456,0,0,1,1.893,2.3c2.917,6.141-8.111,1.932-6.393,6.114,2.1,4.806,10.2,1.96,12.177,0a6.255,6.255,0,0,0,.552-7.607c-1.9-2.886-5.471-3.4-8.525-3.4-.678.537-.329,1.818.3,2.6m-44.122-12.4a3.666,3.666,0,0,0-.052,4.391c.956,1.028,2.958-1.625,4.24-2.681a2.634,2.634,0,0,0-2.633-2.177,2.864,2.864,0,0,0-1.555.467M12.623,56.914c-3.637.751-6.907,4.794-9.669,8.563A15.513,15.513,0,0,0,.167,70.565,5.56,5.56,0,0,0,0,71.876V71.9a6.063,6.063,0,0,0,1.558,3.756c.8,1.052,1.68,2.17,3.109,2.317,5.21.663,2.021-5.566,3.674-8.31a8.1,8.1,0,0,1,4.6-3.446,27.432,27.432,0,0,1,5.1-.647,18.488,18.488,0,0,0,11.191-5.086c.753-.777,1.467-1.9,1.069-2.83a1.783,1.783,0,0,0-2.262-.695,22.261,22.261,0,0,0-2.471,1.276c-2.3,1.085-4.716.556-6.737-.157a15.072,15.072,0,0,0-4.973-1.289,6.176,6.176,0,0,0-1.231.123M48.469,29.259a3.1,3.1,0,0,0-1.142,3.915c.477.94,1.48,1.7,1.577,2.722.156,1.627-1.91,1.921-3.435,2.15-2.252.1-11.892,8-7.763,10.3,2.344.9,14.74-6.476,16.843-6.685,4.3-1.273,9.08-1.808,13.264,1.941,1.6,1.42,2.984,3.314,4.545,4.745s3.489,2.348,4.1,1.206c.694-1.287-.589-4.316-1.986-6.566C69.1,34.124,60.8,29.271,52.655,28.652c-.445-.041-.9-.071-1.343-.071a5.242,5.242,0,0,0-2.843.678m-25.82-18a7.956,7.956,0,0,0-3.14,4.63c-.3,1.265-.21,2.591.582,3.2.9.694,2.367.314,3.689-.028,1.8-.482,4.02-.369,4.818-2.516a26.7,26.7,0,0,0-1.339-5.393,3.173,3.173,0,0,0-2.064-.7,4.668,4.668,0,0,0-2.546.807M51.91,0a4.009,4.009,0,0,0-1.1.184,2.143,2.143,0,0,0-.489.224c-2.94,1.871.018,3.846,2.278,2.95C55.071,2.435,54.295.04,52.026,0Z" fill="none"/>
    </clipPath>
  </defs>
  <g id="Group_48" data-name="Group 48">
    <g id="Group_47" data-name="Group 47" clip-path="url(#clip-path)">
      <path id="Path_57" data-name="Path 57" d="M47.589,167.615h0a9.776,9.776,0,0,0-2.828-2.375c-.587-.376-1.293-.762-1.915-.462a1.915,1.915,0,0,0-.812,1c-3.984,9.1,10.156,8.231,5.555,1.838" fill="#d7d8dc"/>
      <path id="Path_58" data-name="Path 58" d="M38.6,145.816c1.625-2.79,4.976-3.515,7.911-4.264a12.71,12.71,0,0,0,5.189-2.336,5.869,5.869,0,0,0,2.13-5.3,6.3,6.3,0,0,0-3.14-4.231,11.441,11.441,0,0,0-4.97-1.291c-2.1-.151-4.526.121-5.722,1.986-.61.951-.8,2.194-1.55,3.027-1.355,1.512-3.688.948-5.552,1.6-2.659.931-4.058,4.325-3.861,7.3s1.6,5.653,2.964,8.242c1,1.882,4.5,9.413,6.489,6.033,1.658-2.808-1.936-7.244.112-10.766" fill="#d7d8dc"/>
      <path id="Path_59" data-name="Path 59" d="M66.28,122.252h0a6.253,6.253,0,0,0,.552-7.606c-1.906-2.886-5.471-3.405-8.526-3.405-.676.538-.327,1.818.3,2.6a12.415,12.415,0,0,1,1.893,2.3c2.918,6.141-8.11,1.932-6.393,6.115,2.1,4.805,10.2,1.959,12.177,0" fill="#d7d8dc"/>
      <path id="Path_60" data-name="Path 60" d="M18.669,103.152a2.7,2.7,0,0,0-4.188-1.71,3.667,3.667,0,0,0-.052,4.391c.956,1.028,2.958-1.624,4.24-2.681" fill="#d7d8dc"/>
      <path id="Path_61" data-name="Path 61" d="M8.342,69.666h0a8.1,8.1,0,0,1,4.6-3.447,27.485,27.485,0,0,1,5.1-.647,18.487,18.487,0,0,0,11.19-5.085c.752-.778,1.466-1.906,1.069-2.831a1.782,1.782,0,0,0-2.262-.694,22.1,22.1,0,0,0-2.472,1.275c-2.3,1.085-4.716.556-6.736-.157s-3.968-1.622-6.2-1.165c-3.637.75-6.907,4.794-9.669,8.562A15.526,15.526,0,0,0,.167,70.566a5.563,5.563,0,0,0,1.391,5.093c.8,1.052,1.681,2.17,3.11,2.316,5.209.664,2.02-5.565,3.674-8.309" fill="#d7d8dc"/>
      <path id="Path_62" data-name="Path 62" d="M54.549,41.663h0c4.3-1.273,9.08-1.807,13.265,1.941,1.6,1.421,2.982,3.314,4.545,4.745s3.488,2.348,4.1,1.206c.694-1.287-.59-4.315-1.986-6.565C69.1,34.125,60.8,29.271,52.656,28.652a6.663,6.663,0,0,0-4.186.607,3.1,3.1,0,0,0-1.143,3.915c.478.941,1.481,1.7,1.577,2.722.156,1.627-1.909,1.921-3.435,2.15-2.252.1-11.892,8-7.763,10.3,2.345.906,14.741-6.476,16.843-6.685" fill="#d7d8dc"/>
      <path id="Path_63" data-name="Path 63" d="M27.259,11.157a3.9,3.9,0,0,0-4.61.1,7.95,7.95,0,0,0-3.139,4.63c-.3,1.264-.212,2.591.581,3.2.9.694,2.367.314,3.689-.027,1.8-.483,4.021-.371,4.819-2.517a26.769,26.769,0,0,0-1.34-5.393" fill="#d7d8dc"/>
      <path id="Path_64" data-name="Path 64" d="M50.808.184h0a2.186,2.186,0,0,0-.489.224c-2.94,1.871.018,3.847,2.278,2.95,2.876-1.072,1.36-4.135-1.789-3.174" fill="#d7d8dc"/>
    </g>
  </g>
  <g id="Group_50" data-name="Group 50">
    <g id="Group_49" data-name="Group 49" clip-path="url(#clip-path-2)">
      <path id="Path_65" data-name="Path 65" d="M60.478,36.154h0c-2.269-1.331-4.647-2.557-7.021-2.744a5.344,5.344,0,0,0-5.63,3.14c-.855,2.262.055,5.131,1.7,7.247a14.791,14.791,0,0,0,1.795,1.914,32.94,32.94,0,0,0,4.33,3.167C59.61,50.254,78.1,65.21,76.28,57.111c-.921-6.786-10.444-18.182-15.8-20.957" fill="#adacb2"/>
      <path id="Path_66" data-name="Path 66" d="M8.677,69.21h0a4.422,4.422,0,0,0,2.251,4.047c3.743,2.6,9.118,3.591,14.664,2.918,4.159-.574,9.942-1.539,8.161-7.088-2.529-8.444-24.6-11.7-25.076.123" fill="#adacb2"/>
      <path id="Path_67" data-name="Path 67" d="M54.528,120.239a11.576,11.576,0,0,0-3.248-.786,2.866,2.866,0,0,0-2.733,1.5,3.578,3.578,0,0,0,.68,3.532,9.646,9.646,0,0,0,2.929,2.223c1.248.711,2.508,1.416,3.779,2.085a41.41,41.41,0,0,0,9.938,3.933h0c3.621.629,15.278,1.258,7.889-4.429-5.56-4.4-12.83-6.029-19.234-8.054" fill="#adacb2"/>
      <path id="Path_68" data-name="Path 68" d="M33.8,146.346h0c-1.879,1.578-4.648,2-5.882,4.209a5.475,5.475,0,0,0,1.16,6.221,10.108,10.108,0,0,0,5.781,2.505c7.059.9,28.621-2.743,23.662-14.837-1.889-4.75-6.868-7.117-11.327-7.134a13,13,0,0,0-7.637,2.076c-2.505,1.794-3.434,5.008-5.757,6.96" fill="#adacb2"/>
    </g>
  </g>
</svg>
