<svg id="Group_16" data-name="Group 16" xmlns="http://www.w3.org/2000/svg" xmlns:xlink="http://www.w3.org/1999/xlink" width="115.142" height="170.044" viewBox="0 0 115.142 170.044">
  <defs>
    <clipPath id="clip-path">
      <rect id="Rectangle_3" data-name="Rectangle 3" width="115.142" height="170.044" fill="none"/>
    </clipPath>
    <clipPath id="clip-path-2">
      <path id="Path_18" data-name="Path 18" d="M39.475.142c-6.168.689-12.614,5.044-16.38,11.676-3.759,6.673-4.167,14.863,0,17.591a28.6,28.6,0,0,0-10.085,6.624c-3.039,3.246-5.517,8.129-5.423,11.74.122,5.257,5.465,5.536,10.509,4.237,5.01-1.382,10.564-3.9,15.337-2.326-2.325.16-4.757,2.023-6.042,4.5s-1.383,5.426-.245,7.343a17.193,17.193,0,0,0-7.381,1.264,12.026,12.026,0,0,0-5.986,6.25c-1.1,2.828-.413,5.941,1.807,6.218-3.486.372-6.98,5.247-7.373,9.213a6.877,6.877,0,0,0,4.992,7.7c3.144.838,7.006-.1,10.574-1.848a71.051,71.051,0,0,0,10.247-6.723c-3.076,4.646-.933,11.606,3.746,12.461-3.8.881-7.657,1.95-11.037,4.35s-6.264,6.358-6.677,10.5c-.617,6.127,4.247,10.434,9.38,12.434,5.124,1.956,10.932,2.506,15.683,5.8-6.875-.6-12.644,8.227-11.725,15.771.916,7.572,6.845,13.472,13.354,15.787,6.509,2.3,13.517,1.5,20.229.169,3.35-.664,6.968-1.646,9.081-4.668,1.962-2.806,2.119-6.814,1.18-10.283a36.3,36.3,0,0,0-4.7-9.527c6.068-1.011,11.3-6.079,12.824-12.545,1.523-6.45-.937-20.86-5.812-25.8,8.639,4.248,10.628,4.5,18.758,3.229,4.807-.633,5.385-5.979,9.4-7.705,2.035-.867,4.241-2.017,3.938-4.824-.409-3.975-4.948-6.852-7.968-10.116h0c-2.653-2.941,1.479-6.506.083-10.072-1.433-3.63-4.557-9.978-11.347-11.633-2.1-7.023,5.957-8.893.773-17.639-2.783-4.808-8.243-7.7-9.842-12.715-.459-1.466-.509-2.965-1.038-4.421-1.332-3.688-5.075-5.681-8.3-7.333C68.117,11.783,62.653,7.869,57.081,4.77,52.231,2.078,47.14,0,41.844,0a19.708,19.708,0,0,0-2.369.142" fill="none"/>
    </clipPath>
  </defs>
  <g id="Group_13" data-name="Group 13">
    <g id="Group_12" data-name="Group 12" clip-path="url(#clip-path)">
      <path id="Path_13" data-name="Path 13" d="M93.183,39.3c-2.784-4.808-8.244-7.7-9.842-12.715-.459-1.466-.509-2.965-1.039-4.421-1.331-3.688-5.074-5.68-8.3-7.333C68.117,11.782,62.653,7.869,57.081,4.769S45.626-.6,39.475.142c-6.167.69-12.614,5.044-16.38,11.675-3.759,6.674-4.167,14.864,0,17.593a28.565,28.565,0,0,0-10.085,6.623c-3.038,3.246-5.516,8.129-5.422,11.74.122,5.256,5.464,5.536,10.509,4.237,5.01-1.382,10.563-3.9,15.337-2.326-2.326.161-4.757,2.024-6.043,4.5s-1.383,5.426-.245,7.343a17.187,17.187,0,0,0-7.38,1.264,12.028,12.028,0,0,0-5.987,6.25c-1.1,2.828-.412,5.941,1.808,6.218-3.487.372-6.98,5.247-7.374,9.212A6.878,6.878,0,0,0,13.2,92.18c3.145.839,7.006-.1,10.574-1.848a71,71,0,0,0,10.247-6.723c-3.075,4.646-.933,11.606,3.747,12.461-3.8.881-7.657,1.95-11.037,4.35s-6.265,6.359-6.678,10.5c-.617,6.128,4.247,10.434,9.38,12.434,5.124,1.955,10.932,2.506,15.683,5.8-6.875-.6-12.644,8.226-11.724,15.77.915,7.572,6.845,13.472,13.353,15.787,6.509,2.3,13.517,1.5,20.229.169,3.351-.664,6.968-1.645,9.081-4.668,1.963-2.806,2.12-6.814,1.18-10.283a36.273,36.273,0,0,0-4.7-9.527c6.069-1.011,11.3-6.079,12.825-12.545,1.522-6.45-.937-20.861-5.812-25.8,8.639,4.248,10.628,4.5,18.758,3.229,4.806-.633,5.384-5.979,9.4-7.705,2.035-.867,4.241-2.017,3.939-4.824-.41-3.974-4.948-6.852-7.969-10.116h0c-2.654-2.94,1.478-6.506.082-10.073-1.433-3.629-4.557-9.977-11.346-11.632-2.1-7.023,5.957-8.893.773-17.639" fill="#d7d8dc"/>
    </g>
  </g>
  <g id="Group_15" data-name="Group 15">
    <g id="Group_14" data-name="Group 14" clip-path="url(#clip-path-2)">
      <path id="Path_14" data-name="Path 14" d="M27.417,20.755h0a5.885,5.885,0,0,0,2.6,5.2,16.029,16.029,0,0,0,5.478,1.988c6.683,1.555,14.023,3.258,21.55,3.129,2.9-.355,17.14-.908,8.993-5.422-5.333-3-13.365-.687-19.226-1.094a79.122,79.122,0,0,1-19.392-3.8" fill="#adacb2"/>
      <path id="Path_15" data-name="Path 15" d="M78.731,45.7h0c-7.956,3.146-18.312,2.57-26.523-1.658-3.757-1.956-7.3-4.749-11.487-4.332-2.452.249-4.831,1.588-7.217,2.56-5.211,2.12-10.4,2.542-15.281,3.436A64.243,64.243,0,0,0,1.242,51.216c2.509,4.118,8.784,3.493,15.28,1.982,6.459-1.573,13.437-4.116,20.291-3.769,6.855.295,13.943,4.47,15.989,11.922,3.188-5.928,10.1-8.892,15.986-6.426C72.134,56.3,75.1,59.1,78.513,60.059c3.065.871,6.031.183,8.821-.367,2.926-1.5,24.066.119,16.5-8.206-2.387-2.948-6.9-3.181-9.366-3.1-5.14.073-10.013.1-15.738-2.682" fill="#adacb2"/>
      <path id="Path_16" data-name="Path 16" d="M101.433,89.514h0c-6.255-2.808-12.293-7.305-18.285-11.583-2.694,2.429-6.6,3.135-10.426,2.864s-7.62-1.464-11.383-2.5a32.24,32.24,0,0,0,20.4,11.263c-4.342,2.731-8.791,5.759-13.858,7.429s-10.934,1.846-15.61-.979-7.628-9.238-5.725-15c-1.728,1.368-4.046.907-5.843.016s-3.446-2.185-5.436-2.348c-2.377-.193-4.777,1.244-7.091,2.4C17.732,86.169,6.491,86.3.057,82.3c-.423,4.731,1.527,8.152,4.7,9.927,3.162,1.752,7.419,2,11.815,1.5,3.494-.4,7.207-1.268,10.541-.274,2.7.809,4.924,2.776,7.3,4.483,8.455,6.069,19.224,9.1,29.883,10.539s21.325,1.4,31.578,2.363c4.388.4,9.154.849,11.875-1.889,1.823-1.831,2.277-4.714,3.308-7.085.657-1.523,4.153-4.283,4.088-5.683-.055-4.357-10.922-5.7-13.708-6.663" fill="#adacb2"/>
      <path id="Path_17" data-name="Path 17" d="M60.645,130.933h0c3.907,4.432,3.261,12.37-.411,16.961s-9.509,6.222-14.9,5.741-10.491-2.77-15.486-4.867c-1.939,5.026,1.648,10.448,5.636,13.557,8.611,6.686,19.567,8.149,29.949,7.62,7.951-.371,16.07-1.829,23.126-5.951,7.061-4.163,12.894-11.07,13.969-19.315.957-7.31-4.339-23.674-12.961-18.817-8.64,5.1-18.59,7.772-28.921,5.071" fill="#adacb2"/>
    </g>
  </g>
</svg>
