<svg id="Group_36" data-name="Group 36" xmlns="http://www.w3.org/2000/svg" xmlns:xlink="http://www.w3.org/1999/xlink" width="101.875" height="173.872" viewBox="0 0 101.875 173.872">
  <defs>
    <clipPath id="clip-path">
      <rect id="Rectangle_7" data-name="Rectangle 7" width="101.875" height="173.872" fill="none"/>
    </clipPath>
    <clipPath id="clip-path-2">
      <path id="Path_37" data-name="Path 37" d="M28.454,1a9.153,9.153,0,0,0-4.89,6.3c-.423,3.067,1.832,4.713,4.218,5.462,2.381.727,5.185,1.088,6.915,3.1A92.484,92.484,0,0,0,19.68,23.5a13.038,13.038,0,0,0-4.517,4.126c-1.134,1.881-1.244,4.447.2,4.591a23.318,23.318,0,0,0-6.278,5C7.2,39.437,5.7,42.573,5.775,44.864c.094,2.747,2.432,3.424,4.938,2.863,2.5-.578,5.195-2.132,7.895-3.023,7.446-2.523,15.044.707,19.287,7.379-3.8-1.9-8.919-.193-12.016,3.78s-4.017,9.59-2.21,13.253c-4.845.888-9.68,2.249-14.048,5.548S1.349,83.5.352,88.662c-1.085,5.608,1.407,9.461,4.485,12.556,3.061,3.043,6.882,5.983,8.557,10.882.9,2.644,1.123,5.705,2.367,8.191,2.213,4.42,7.3,6.333,12.3,6.823a64.356,64.356,0,0,0,7.027.155,56.921,56.921,0,0,1,8.226.281c2.505.329,5.118,1.092,6.867,3.129s2.213,5.651.4,7.612c-2.274,2.451-7.312,2.176-7.432,5.714-.088,2.535,2.855,3.83,3.563,6.247,1.929,6.589-10.433,7.727-12.686,12.411-1.793,3.69-1.594,8.641,2.172,10.4,8.28,3.9,17.194-7.19,20.654-14.11,3.652-7.421,10.685-16.839,9.4-25.754-.863-6.033-5.778-10.794-11.054-12.753s-10.943-1.692-16.453-1.655-11.235-.277-15.643-3.091c-3.191-2.053-5.547-6.253-3.722-10.363,1.1-2.469,3.356-4.118,5.32-5.889a31,31,0,0,0,9.958-19.54c2.165,1.035,4.913.294,7.2-.965s4.321-3.024,6.619-4.181C53.976,71.987,60.3,73.086,66.237,73.7c5.96.554,12.5.326,15.353-4.224,2.457-3.914,1.361-10.437-1.714-15.678A30.291,30.291,0,0,0,67.07,42.279c-3.722-1.841-7.635-3-11.291-4.777s-7.143-4.371-8.706-8.167c-1.564-3.776-.6-9.071,2.872-11.22,2.067-1.265,4.569-1.182,6.906-1.432s4.872-1.129,5.554-3.412c.588-1.968-.476-4.4-2.069-5.951a14.639,14.639,0,0,0-5.6-3.051A76.791,76.791,0,0,0,35.409.1c-.7-.055-1.4-.1-2.108-.1a10.746,10.746,0,0,0-4.847,1" fill="none"/>
    </clipPath>
  </defs>
  <g id="Group_33" data-name="Group 33">
    <g id="Group_32" data-name="Group 32" clip-path="url(#clip-path)">
      <path id="Path_34" data-name="Path 34" d="M66.256,133.2h0c-.863-6.033-5.778-10.794-11.055-12.753s-10.942-1.693-16.453-1.655-11.234-.278-15.642-3.092c-3.191-2.053-5.547-6.253-3.722-10.362,1.1-2.469,3.356-4.118,5.32-5.889A31,31,0,0,0,34.661,79.9c2.166,1.035,4.914.295,7.2-.965s4.321-3.023,6.62-4.18c5.493-2.773,11.813-1.674,17.755-1.064,5.96.555,12.5.327,15.352-4.223,2.457-3.915,1.362-10.438-1.714-15.679A30.28,30.28,0,0,0,67.07,42.279c-3.722-1.841-7.635-3-11.291-4.777-3.656-1.8-7.144-4.372-8.707-8.167-1.563-3.776-.6-9.072,2.873-11.22,2.067-1.265,4.569-1.183,6.906-1.432,2.338-.265,4.872-1.13,5.554-3.413.588-1.967-.476-4.405-2.069-5.95a14.641,14.641,0,0,0-5.6-3.052A76.788,76.788,0,0,0,35.409.1a12.916,12.916,0,0,0-6.955.9,9.154,9.154,0,0,0-4.89,6.3c-.423,3.067,1.832,4.713,4.218,5.462,2.382.727,5.185,1.088,6.915,3.1a92.478,92.478,0,0,0-15.017,7.63,13.032,13.032,0,0,0-4.517,4.127c-1.134,1.88-1.244,4.446.2,4.591a23.271,23.271,0,0,0-6.28,5C7.2,39.437,5.7,42.572,5.775,44.864c.094,2.747,2.432,3.424,4.937,2.862,2.5-.577,5.2-2.131,7.9-3.023,7.446-2.522,15.043.708,19.286,7.379-3.8-1.9-8.918-.192-12.016,3.781s-4.017,9.59-2.209,13.252c-4.845.888-9.681,2.249-14.048,5.548S1.349,83.5.352,88.661c-1.085,5.609,1.406,9.461,4.484,12.556,3.062,3.044,6.882,5.984,8.557,10.882.905,2.644,1.124,5.705,2.368,8.191,2.213,4.421,7.3,6.333,12.3,6.824s10.176-.233,15.252.435c2.506.329,5.119,1.092,6.867,3.13s2.213,5.651.4,7.611c-2.273,2.451-7.311,2.176-7.432,5.714-.087,2.536,2.856,3.831,3.564,6.248,1.928,6.589-10.433,7.726-12.686,12.411-1.793,3.69-1.6,8.641,2.172,10.4,8.28,3.9,17.194-7.19,20.654-14.11,3.652-7.421,10.685-16.84,9.4-25.754" fill="#d7d8dc"/>
    </g>
  </g>
  <g id="Group_35" data-name="Group 35">
    <g id="Group_34" data-name="Group 34" clip-path="url(#clip-path-2)">
      <path id="Path_35" data-name="Path 35" d="M43.75,35.572h0c.818,3.991,4.659,6.341,8.444,7.415,3.784,1.051,7.767,1.216,11.5,2.74,3.743,1.507,7.452,4.93,8.181,9.1a8.28,8.28,0,0,1-3.607,8.307c-2.523,1.691-5.745,2.2-8.934,2.436a57.422,57.422,0,0,1-27.721-4.83c3.944-.142,6.451,5.151,4.545,9.183s-7.324,5.677-10.14,3.39c3.337,6.424-.1,16.42-6.233,21.715A25.8,25.8,0,0,1,.062,101.079a5.862,5.862,0,0,0,3.465,6.251c2.181,1.075,4.853,1.394,7.287,2.39,6.457,2.656,11.051,9.866,18.41,12.175,5.607,1.773,12.027.4,17.626-2.3s10.574-6.608,15.644-10c7.372-4.928,15.046-8.7,21.771-12.8,6.744-4.147,12.528-8.594,15.6-14.943,2.173-4.512,2.932-10.455.527-17.5-2.07-6.05-6.214-11.793-10.442-16.819-8.415-10.058-17.858-19.348-28.71-23.79C54.348,20.6,41.668,25.478,43.75,35.572" fill="#adacb2"/>
      <path id="Path_36" data-name="Path 36" d="M46.132,150.45h0a10.5,10.5,0,0,1,6.773,6.778,12.73,12.73,0,0,1-.942,10.165c7.471.006,15.156-1.252,21.638-5.282,9.847-6.329,17.316-21.978,5.945-32.061-6.7-6.045-18.065-6.368-19.391,4.47-.975,7.8-4.535,19.243-14.023,15.93" fill="#adacb2"/>
    </g>
  </g>
</svg>
