<svg id="Group_46" data-name="Group 46" xmlns="http://www.w3.org/2000/svg" xmlns:xlink="http://www.w3.org/1999/xlink" width="90.119" height="178.031" viewBox="0 0 90.119 178.031">
  <defs>
    <clipPath id="clip-path">
      <rect id="Rectangle_9" data-name="Rectangle 9" width="90.119" height="178.031" fill="none"/>
    </clipPath>
    <clipPath id="clip-path-2">
      <path id="Path_56" data-name="Path 56" d="M40.989,137.549c-2.622,1.187-4.942,3.071-7.435,4.576-1.8,1.084-3.9,2.26-4.406,4.416-.7,2.954,2.009,5.241,4.148,7.126a28.943,28.943,0,0,1,6.836,9.073,9.424,9.424,0,0,1,1.141,3.9,3.793,3.793,0,0,1-1.686,3.44c-.935.486-2.074.3-2.988.834-4.626,2.7,2.134,6.527,4.247,6.708,1.209.1,3.271.4,5.288.409h.207c2.307-.012,4.515-.428,5.269-1.994a4.446,4.446,0,0,0-.838-4.518,15.282,15.282,0,0,0-3.621-2.8,15.885,15.885,0,0,1-6.664-8.282c-1.1-3.573-.267-8.046,2.564-10.2,2.717-2.07,6.863-1.869,8.6-4.914,1.479-2.6.043-6.375-2.451-7.871a7.049,7.049,0,0,0-3.673-.967,11.132,11.132,0,0,0-4.533,1.062m6.392-25.625a3.456,3.456,0,0,0-1.9,1.529c-.71,1.485.507,3.314,1.954,3.9s3.043.4,4.573.607,3.224,1.071,3.653,2.692a3.553,3.553,0,0,1-1.513,3.664,9.3,9.3,0,0,1-3.778,1.253c-5.654,1.08-7.546,7.927-.654,7.388,5.292-.384,12.174-2.1,15.159-6.808a9.19,9.19,0,0,0,.555-8.719,11.243,11.243,0,0,0-4.934-4.788,15.59,15.59,0,0,0-7.379-1.883,14.561,14.561,0,0,0-5.733,1.164m-26.065-8.28a3.879,3.879,0,0,0-2.1,1.443c-7.121,9.346,16.794,2.544,4.354-1.428a3.907,3.907,0,0,0-1.143-.168,4.135,4.135,0,0,0-1.115.153m8.056-46.59c-2.2.684-4.2,2.251-6.336,3.217-3.243,1.471-6.5,1.508-9.555,1.854a14.978,14.978,0,0,0-9.049,3.717c-2.82,2.6-5.079,7.379-4.263,9.944.436,1.372,1.631,1.925,2.429,3,.929,1.253,1.277,3.142,1.744,4.9s1.122,3.5,2.52,4.327c1.9,1.1,6.883-.918,8.3-4.1a7.794,7.794,0,0,0,.355-4.24,11.86,11.86,0,0,1-.141-4.153c.772-3.776,4.737-6.4,8.184-7.379,3.435-1.025,7.375-1.5,9.916-4.4A5.21,5.21,0,0,0,34.845,59.2a3.593,3.593,0,0,0-3.732-2.415,5.815,5.815,0,0,0-1.741.27M46.69,28.011c-3.267,1.311-6.039,5.307-4.712,8.633.473,1.194,1.415,2.188,1.63,3.479.287,1.724-.833,3.408-2.183,4.5s-2.952,1.8-4.328,2.9c-1.891,1.524-3.881,5.447-1.16,6.87,1.958,1.039,4.572-1.337,6.31-2.2a21.635,21.635,0,0,1,19.973-.266h0c5.871,2.932,11.88,8.461,17.013,8.2a4.894,4.894,0,0,0,4.741-4.545c.388-2.73-.628-6.51-2.67-9.645-2.753-4.244-6.845-6.517-10.672-8.919-3.858-2.447-7.571-5.405-11.549-7.469a18.413,18.413,0,0,0-8.309-2.314,10.779,10.779,0,0,0-4.085.768M28.207,12.227c-5.506.173-10.923,4.836-15.452,10A12.172,12.172,0,0,0,9.9,26.8c-.732,2.817,1.373,3.9,3.611,3.488,3.264-.626,6.956-2.752,10.5-3.123,2.673-.284,5.454.2,8.275-1.356,2.086-1.144,3.162-1.68,2.526-3.912-.336-1.186-2.3-1.569-2.845-2.658-.867-1.76.019-3.357-.418-5.186-.325-1.358-1.763-1.831-3.128-1.831-.074,0-.148,0-.222,0M53.327,0c-4.177.013-3.754,2.073-1.708,4.133,3.328,3.351,10.949,6.7,10.035,1.236-.226-1.614-1.878-2.815-3.314-3.615-.352-.2-.708-.392-1.066-.577A8.837,8.837,0,0,0,53.411,0Z" fill="none"/>
    </clipPath>
  </defs>
  <g id="Group_43" data-name="Group 43">
    <g id="Group_42" data-name="Group 42" clip-path="url(#clip-path)">
      <path id="Path_46" data-name="Path 46" d="M51.61,176.036h0a4.445,4.445,0,0,0-.838-4.517,15.242,15.242,0,0,0-3.621-2.8,15.884,15.884,0,0,1-6.664-8.283c-1.1-3.573-.267-8.045,2.565-10.2,2.716-2.071,6.862-1.87,8.594-4.914,1.479-2.6.043-6.375-2.451-7.871s-5.585-1.1-8.206.1-4.941,3.071-7.435,4.576c-1.8,1.084-3.9,2.261-4.406,4.416-.7,2.953,2.01,5.24,4.149,7.126a28.924,28.924,0,0,1,6.835,9.072,9.414,9.414,0,0,1,1.141,3.9,3.8,3.8,0,0,1-1.685,3.441c-.935.486-2.075.3-2.988.834-4.627,2.7,2.133,6.527,4.247,6.708,2.636.212,9.329,1.393,10.763-1.586" fill="#d7d8dc"/>
      <path id="Path_47" data-name="Path 47" d="M64.872,126.15a9.19,9.19,0,0,0,.555-8.719,11.246,11.246,0,0,0-4.933-4.788,15.127,15.127,0,0,0-13.112-.719,3.45,3.45,0,0,0-1.9,1.529c-.71,1.485.507,3.314,1.954,3.9s3.043.4,4.573.608,3.223,1.069,3.653,2.691a3.552,3.552,0,0,1-1.513,3.664,9.294,9.294,0,0,1-3.778,1.253c-5.654,1.079-7.545,7.927-.653,7.388,5.291-.384,12.173-2.1,15.158-6.808" fill="#d7d8dc"/>
      <path id="Path_48" data-name="Path 48" d="M23.574,103.66h0a4.025,4.025,0,0,0-2.257-.015,3.878,3.878,0,0,0-2.1,1.443c-7.122,9.346,16.793,2.543,4.354-1.428" fill="#d7d8dc"/>
      <path id="Path_49" data-name="Path 49" d="M15.159,83.917h0a7.785,7.785,0,0,0,.356-4.24,11.858,11.858,0,0,1-.142-4.153c.772-3.776,4.737-6.4,8.185-7.379,3.434-1.025,7.375-1.5,9.915-4.4A5.2,5.2,0,0,0,34.845,59.2c-.617-2.218-3.278-2.838-5.474-2.144s-4.2,2.251-6.335,3.217c-3.243,1.472-6.5,1.507-9.555,1.854a14.979,14.979,0,0,0-9.05,3.716c-2.819,2.6-5.079,7.381-4.262,9.945.436,1.372,1.63,1.925,2.429,3,.928,1.253,1.277,3.141,1.744,4.9s1.122,3.5,2.519,4.327c1.9,1.1,6.883-.918,8.3-4.1" fill="#d7d8dc"/>
      <path id="Path_50" data-name="Path 50" d="M62.22,51.932h0c5.872,2.933,11.881,8.461,17.014,8.2a4.892,4.892,0,0,0,4.741-4.544c.389-2.73-.628-6.51-2.67-9.645-2.753-4.245-6.845-6.517-10.672-8.919-3.858-2.448-7.571-5.405-11.549-7.469s-8.463-3.141-12.394-1.546c-3.267,1.311-6.039,5.306-4.712,8.633.473,1.194,1.415,2.188,1.63,3.479.287,1.723-.833,3.408-2.183,4.5s-2.951,1.8-4.328,2.9c-1.891,1.525-3.881,5.448-1.16,6.87,1.959,1.04,4.572-1.336,6.31-2.2a21.638,21.638,0,0,1,19.973-.265" fill="#d7d8dc"/>
      <path id="Path_51" data-name="Path 51" d="M31.557,14.053h0c-.342-1.432-1.924-1.88-3.35-1.826-5.506.173-10.923,4.836-15.452,10A12.16,12.16,0,0,0,9.9,26.8c-.732,2.818,1.373,3.9,3.611,3.488,3.264-.625,6.956-2.752,10.5-3.123,2.673-.283,5.454.2,8.275-1.355,2.085-1.144,3.162-1.68,2.526-3.913-.337-1.186-2.3-1.568-2.844-2.658-.868-1.76.018-3.357-.419-5.186" fill="#d7d8dc"/>
      <path id="Path_52" data-name="Path 52" d="M61.655,5.369c-.227-1.613-1.878-2.816-3.315-3.615-.352-.2-.707-.392-1.066-.576A8.82,8.82,0,0,0,53.411,0h0c-11.16-.039,9.724,14.216,8.245,5.368" fill="#d7d8dc"/>
    </g>
  </g>
  <g id="Group_45" data-name="Group 45">
    <g id="Group_44" data-name="Group 44" clip-path="url(#clip-path-2)">
      <path id="Path_53" data-name="Path 53" d="M78.223,56.294h0c-3.944.021-8.874-2.03-12.705-5.6-3.111-2.9-6.148-7.179-9.863-6.8-1.816.194-3.233,1.526-4.886,2.327s-4.076.873-5.053-.805c-2.671,4.017-5.373,9.473-2.908,13.551,1.464,2.435,4.3,3.524,6.957,4.439,4.879,1.668,9.86,3.207,14.772,4.622,5.019,1.445,10.05,2.773,14.518,2.89,4.483.09,8.335-1.063,10.073-4.417,1.04-2.03,2.164-9.688-1.751-13.107-2.751-2.377-6.113,2.814-9.154,2.9" fill="#adacb2"/>
      <path id="Path_54" data-name="Path 54" d="M14.333,67.88h0c-1.818,1.262-2.694,3.781-3.356,5.951-.97,3.2-1.947,6.615-1.19,9.2.872,2.981,3.862,4.1,6.924,4.564a27.564,27.564,0,0,0,15.953-2.519c3.571-1.867,10.156-6.3,9.006-11.31-.973-4.283-7.111-5.6-10.443-5.9-2.661-.3-5.38.038-7.978-.06-2.68-.126-6.252-1.789-8.916.08" fill="#adacb2"/>
      <path id="Path_55" data-name="Path 55" d="M41.672,158.966c4.684,1.61,12,2.075,15.623-2.383,2.684-3.294.93-6.646-2.084-8.982-3.344-2.592-8.113-3.559-11.913-1.832-5.454,2.5-8.816,10.756-1.626,13.2" fill="#adacb2"/>
    </g>
  </g>
</svg>
