<svg id="Group_26" data-name="Group 26" xmlns="http://www.w3.org/2000/svg" xmlns:xlink="http://www.w3.org/1999/xlink" width="90.119" height="176.016" viewBox="0 0 90.119 176.016">
  <defs>
    <clipPath id="clip-path">
      <rect id="Rectangle_5" data-name="Rectangle 5" width="90.119" height="176.016" fill="none"/>
    </clipPath>
    <clipPath id="clip-path-2">
      <path id="Path_29" data-name="Path 29" d="M36.989,0a22.859,22.859,0,0,0-2.672.16,23.117,23.117,0,0,0-15.51,9.2c-4.13,5.408-6.42,12.791-5.011,17.41.945,3.093,3.456,5.888,1.733,9.9-1.434,3.295-4.777,5.144-7.164,7.934-4.513,5.33-5.7,13.1-3.852,17.167,1.868,4.114,6.2,5.753,10.941,7.1,1.741.476,3.784,1.218,4.027,3.344.174,1.521-.67,3.206-1.449,4.747-4.37,8.665-7.843,17.882-8.4,26.551-.552,8.7,2.248,16.956,8.84,21.247,3.14,2.029,7.071,3.174,9.526,6.362,2.017,2.62,2.728,6.2,4.023,9.394s3.656,6.376,6.886,6.564c-3.688,3.063-4.413,9.576-1.541,13.456,6.831,9.231,26-1.768,28.4-10.595,1.756-6.637-1.411-14.769-7.251-18.306-2.418-1.449-5.156-2.1-7.575-3.514s-4.611-4.031-4.358-6.994c.246-2.9,2.756-5.44,2.02-8.241-.391-1.484-1.627-2.567-2.068-4.028a5.121,5.121,0,0,1,1.832-5.2,10.115,10.115,0,0,1,5.112-1.861c4.811-.684,9.776-.447,14.17-1.742,4.4-1.328,8.226-4.617,8.117-9.686C75.651,81.8,65,73.6,65.66,65.216c.35-4.2,3.572-6.82,6.892-7.878,3.327-1.083,6.958-1.023,9.712-2.223,2.76-1.222,4.537-4.3,3.142-8.911-1.971-6.8-9.046-10.983-13.129-16.772-2.864-4.207-3.565-9.2-5.886-13.644C63.1,9.457,56.885,5.57,50.952,3.222A37.355,37.355,0,0,0,37.09,0Z" fill="none"/>
    </clipPath>
  </defs>
  <g id="Group_23" data-name="Group 23">
    <g id="Group_22" data-name="Group 22" clip-path="url(#clip-path)">
      <path id="Path_24" data-name="Path 24" d="M65.766,149.945h0c1.756-6.637-1.411-14.769-7.25-18.306-2.419-1.449-5.157-2.1-7.575-3.513s-4.612-4.031-4.359-7c.247-2.9,2.756-5.44,2.02-8.241-.39-1.484-1.626-2.567-2.068-4.028a5.124,5.124,0,0,1,1.832-5.2,10.125,10.125,0,0,1,5.112-1.859c4.811-.685,9.776-.448,14.17-1.744,4.4-1.326,8.227-4.616,8.117-9.685C75.652,81.8,65,73.6,65.659,65.216c.352-4.2,3.573-6.82,6.893-7.877,3.327-1.084,6.959-1.024,9.712-2.224,2.76-1.221,4.537-4.3,3.142-8.911-1.971-6.8-9.046-10.983-13.128-16.772-2.865-4.208-3.565-9.2-5.886-13.644C63.1,9.457,56.886,5.571,50.952,3.223,45.526,1.015,39.954-.511,34.317.16a23.122,23.122,0,0,0-15.51,9.2c-4.129,5.407-6.42,12.79-5.011,17.41.945,3.093,3.457,5.888,1.732,9.9-1.433,3.295-4.775,5.145-7.164,7.935-4.512,5.33-5.7,13.1-3.851,17.166,1.868,4.115,6.2,5.755,10.941,7.1,1.741.477,3.783,1.219,4.027,3.345.174,1.521-.67,3.206-1.449,4.747-4.37,8.665-7.843,17.882-8.4,26.551-.552,8.7,2.249,16.956,8.84,21.246,3.14,2.03,7.071,3.175,9.526,6.362,2.018,2.621,2.729,6.2,4.023,9.4s3.657,6.376,6.887,6.564c-3.689,3.063-4.414,9.576-1.542,13.456,6.831,9.231,26-1.768,28.4-10.595" fill="#d7d8dc"/>
    </g>
  </g>
  <g id="Group_25" data-name="Group 25">
    <g id="Group_24" data-name="Group 24" clip-path="url(#clip-path-2)">
      <path id="Path_25" data-name="Path 25" d="M42.3,25.834c3.262-.646,8.321,1.814,11.848,2.356,4.034.574,8.023.98,11.882,1.546,3.082-.1,16.343,5.7,13.628-.9-2-5.771-9.814-6.74-13.009-6.3a226.579,226.579,0,0,0-24.349,3.3" fill="#adacb2"/>
      <path id="Path_26" data-name="Path 26" d="M30.249,27.345h0a23.679,23.679,0,0,0-7.229,3.514,42.236,42.236,0,0,1-7.032,4.016c-3.764,1.329-10.185-1.846-4.136-5.9,2.168-1.43,5.863-.576,8.153-.717,3.283-.262,6.723-.564,10.244-.91" fill="#adacb2"/>
      <path id="Path_27" data-name="Path 27" d="M74.2,45.874c-3.183,4.335-11.941,3.173-16.671-2.316-5.74,6.254-16.452,8.382-24.553,5.637C40.135,54.821,50.7,57.363,59.9,56.462c-5.176,4.841-13.289,7-20.733,6.021C31.712,61.412,25.247,57.2,22.474,50.74,14.247,57.07,4.1,58.694.257,54.283c-.942,6.1.739,10.549,4.583,12.1,3.829,1.5,9.788.246,14.945-3.358,5.03,4.985,12.8,7.8,20.965,8.1,4.716.149,9.554-.52,14.138,1.04,4.593,1.544,9.045,6.281,8.835,11.187-.208,5.013-5.1,7.718-9.811,8.337a24.841,24.841,0,0,1-11.077-1.179,28.172,28.172,0,0,0-5.772-1.819c-2.85-.334-5.743.74-8.6,1.14s-6.052-.115-7.143-2.666a7.341,7.341,0,0,0,3.9,8.167c2.726,1.508,6.027,1.9,9.112,2.962s6.2,3.063,7.32,6.418c1.414,4.236-.933,9.111-4.329,11.841s-7.607,3.861-11.631,5.069a43.273,43.273,0,0,1,21.6,9.077c4.532,3.5,8.889,8.626,8.781,14.62-.1,5.442-3.9,9.946-8.13,12.779s-9.034,4.483-13.236,7.346c-1.451.988-2.976,2.444-2.879,4.318.121,2.332,2.562,3.508,4.609,4.072,10.811,3.019,22.517,3.26,32.761-1.519,10.267-4.878,18.488-14.419,18.861-25.422.357-9.82-4.976-20.666-4.22-30.759.4-5.265,2.419-9.648,3.666-14.235,2.116-7.783,2.127-16.594,2.163-25.439q.022-6.537.043-13.072c.011-2.217,1.047-8.729-.238-11.225-1.6-3.161-4.1-2.276-5.719-2.38A16.7,16.7,0,0,1,74.2,45.874" fill="#adacb2"/>
      <path id="Path_28" data-name="Path 28" d="M46.857,141.318c-3.192,3-6.49,6.129-10.479,7.591h0c-4.506,1.533-17.108-1.672-10.97-8.664,2.466-2.848,5.784-2.152,8.668-1.263,2.246.635,10.675,4.278,12.782,2.336" fill="#adacb2"/>
    </g>
  </g>
</svg>
